<?xml version="1.0" encoding="utf-8"?>
<!-- Generator: Adobe Illustrator 26.1.0, SVG Export Plug-In . SVG Version: 6.00 Build 0)  -->
<svg version="1.1" id="Capa_1" xmlns="http://www.w3.org/2000/svg" xmlns:xlink="http://www.w3.org/1999/xlink" x="0px" y="0px"
	 viewBox="0 0 512 512" style="enable-background:new 0 0 512 512;" xml:space="preserve">
<style type="text/css">
	.st0{fill:#E153C8;}
</style>
<g>
	<path class="st0" d="M260,429.6h-133c-4.1,0-7.5,3.4-7.5,7.5s3.4,7.5,7.5,7.5h133c4.1,0,7.5-3.4,7.5-7.5
		C267.5,432.9,264.2,429.6,260,429.6z"/>
	<path class="st0" d="M119.6,302.1L119.6,302.1c0,4.1,3.4,7.5,7.5,7.5h208c4.1,0,7.5-3.4,7.5-7.5s-3.4-7.5-7.5-7.5h-208
		C122.9,294.6,119.6,297.9,119.6,302.1z"/>
	<path class="st0" d="M107.1,47.6c-1.5,0-2.9,0.1-4.3,0.5c-16.2,4.1-28.2,18.8-28.2,36.4v171v16.2v189.8c0,20.7,16.8,37.5,37.5,37.5
		h238c20.7,0,37.5-16.8,37.5-37.5v-8.3v-296c0-6.6-2.6-12.9-7.1-17.6L297,53.3c-2.6-2.7-6.1-4.2-9.8-4.2L107.1,47.6z M362,139.5
		h-44.4c-12.4,0-22.5-10.1-22.5-22.5V72.6L362,139.5z M372.5,461.5c0,12.4-10.1,22.5-22.5,22.5h-238c-12.4,0-22.5-10.1-22.5-22.5
		V271.7v-16.2v-171c0-12.4,10.1-22.5,22.5-22.5h168v55c0,20.7,16.8,37.5,37.5,37.5h55V461.5z"/>
	<path class="st0" d="M139.4,49.9c0-12.4,10.1-22.5,22.5-22.5h168v55c0,20.7,16.8,37.5,37.5,37.5h55v307c0,12.4-10.1,22.5-22.5,22.5
		h-21.6v15H400c20.7,0,37.5-16.8,37.5-37.5v-8.3v-296c0-6.6-2.6-12.9-7.1-17.6l-83.5-86.3c-2.6-2.7-6.1-4.2-9.8-4.2L156.9,13
		c-1.5,0-2.9,0.1-4.3,0.5c-16.2,4.1-28.2,18.8-28.2,36.4H139.4z M411.8,104.9h-44.4c-12.4,0-22.5-10.1-22.5-22.5V38L411.8,104.9z"/>
	<path class="st0" d="M335,384.6h-208c-4.1,0-7.5,3.4-7.5,7.5s3.4,7.5,7.5,7.5h208c4.1,0,7.5-3.4,7.5-7.5
		C342.5,387.9,339.2,384.6,335,384.6z"/>
	<path class="st0" d="M335,339.6h-208c-4.1,0-7.5,3.4-7.5,7.5s3.4,7.5,7.5,7.5h208c4.1,0,7.5-3.4,7.5-7.5
		C342.5,342.9,339.2,339.6,335,339.6z"/>
	<path class="st0" d="M180.6,233.2c-6.6,0-12-6.3-12-14.1c0-4.1-3.4-7.5-7.5-7.5s-7.5,3.4-7.5,7.5c0,16.1,12.1,29.1,27,29.1h5.5v8.9
		c0,4.1,3.4,7.5,7.5,7.5s7.5-3.4,7.5-7.5v-8.9h5.5c14.9,0,27-13.1,27-29.1v-14.4c0-16.1-12.1-29.1-27-29.1h-5.5v-42.7h5.5
		c6.6,0,12,6.3,12,14.1c0,4.1,3.4,7.5,7.5,7.5s7.5-3.4,7.5-7.5c0-16.1-12.1-29.1-27-29.1h-5.5V109c0-4.1-3.4-7.5-7.5-7.5
		s-7.5,3.4-7.5,7.5v8.9h-5.5c-14.9,0-27,13.1-27,29.1v14.4c0,16.1,12.1,29.1,27,29.1h5.5v42.7H180.6L180.6,233.2z M201.1,190.5h5.5
		c6.6,0,12,6.3,12,14.1V219c0,7.8-5.4,14.1-12,14.1h-5.5V190.5z M180.6,175.5c-6.6,0-12-6.3-12-14.1V147c0-7.8,5.4-14.1,12-14.1h5.5
		v42.7L180.6,175.5L180.6,175.5z"/>
</g>
</svg>
