<?xml version="1.0" encoding="UTF-8"?>
<svg id="Capa_1" data-name="Capa 1" xmlns="http://www.w3.org/2000/svg" width="56" height="56" viewBox="0 0 56 56">
  <defs>
    <style>
      .cls-1 {
        fill: #0bbbef;
      }
    </style>
  </defs>
  <path class="cls-1" d="M53.2,33.3v1.1c-.2,.4-.3,.8-.5,1.2-.1,.4-.3,.9-.2,1.3,.1,1.3-.3,2.4-1.3,3.2-.2,.2-.5,.5-.6,.8-.4,1.1-.9,2-1.9,2.5,.1,.2,.1,.4,.2,.5,.7,1.6,1.4,3.1,2.1,4.7,.6,1.4-.3,2.7-1.8,2.8h-1.7c-.2,0-.5,.1-.7,.3-.6,.5-1.1,1.2-1.9,1.5h-.8c-.8-.3-1.3-.8-1.6-1.6-.5-1.2-1-2.3-1.6-3.4-.1-.1-.1-.2-.2-.4-.6,1.3-1.2,2.6-1.7,3.9-.3,.8-.8,1.3-1.6,1.6h-.8c-.4-.2-.8-.4-1.1-.7-.7-.9-1.6-1.3-2.8-1.1s-2.1-.3-2.5-1.6H5c-1.2-.2-1.8-.9-2.2-2V4.9c.3-1.1,1-1.8,2.1-2.1H31.5c.4,.3,.8,.6,1.2,1,1.6,1.5,3.1,3.1,4.7,4.7,.5,.5,.8,1.1,.8,1.8v11.9c.4-.2,.6-.3,.9-.4,1.1-.5,2.2-.5,3.2,0,.5,.3,1,.4,1.6,.3,1.3-.1,2.3,.4,3.1,1.3,.3,.3,.6,.6,1,.7,1.3,.4,2.1,1.3,2.5,2.5,.1,.4,.4,.8,.7,1,1,.9,1.5,1.9,1.4,3.3,0,.3,0,.7,.1,1,.1,.4,.3,.9,.5,1.4ZM30.5,4.5H5.6c-.9,0-1.2,.3-1.2,1.2V47.1c0,.8,.3,1.2,1,1.2H30.1c.3,0,.4-.1,.5-.3,.6-1.4,1.2-2.7,1.8-4.1,.1-.3,.1-.4-.2-.5-.7-.4-1.2-1.1-1.5-1.9-.2-.5-.5-.9-.8-1.2-.9-.9-1.3-1.9-1.3-3.1,0-.5-.1-1-.3-1.5-.5-1.1-.6-2.2,0-3.3,.3-.5,.3-1,.3-1.6-.1-1.2,.4-2.2,1.3-3.1,.3-.3,.6-.8,.8-1.2,.4-1.2,1.2-2,2.4-2.4,.3-.1,.7-.3,.9-.5,.6-.7,1.3-1.3,2.2-1.5V10.4h-2.9c-1.7,.1-3.1-1-3-3,.3-1,.2-1.9,.2-2.9Zm7.4,19.2c-1.2-.2-1.8,.2-2.4,.8-.4,.5-1.1,.8-1.7,1.1-.7,.3-1.2,.7-1.4,1.4-.2,.8-.6,1.4-1.2,1.8-.6,.5-.8,1-.8,1.8,.1,.8,0,1.5-.4,2.2-.4,.6-.4,1.3,0,1.9,.4,.7,.5,1.4,.4,2.2-.1,.7,.1,1.3,.7,1.7,.7,.5,1.1,1.2,1.3,2,.2,.6,.6,1.1,1.2,1.2,.8,.2,1.5,.7,2.1,1.4,.4,.5,1,.8,1.7,.7,.8-.1,1.5,0,2.1,.4,.7,.4,1.4,.4,2.1,0,.6-.4,1.3-.5,2-.4,.8,.1,1.4-.2,1.9-.8s1.1-1,1.8-1.2c.8-.2,1.2-.7,1.5-1.5,.2-.7,.6-1.3,1.2-1.8,.6-.5,.9-1.1,.8-1.9-.1-.7,0-1.4,.4-2,.4-.7,.4-1.4,0-2.1-.4-.6-.5-1.3-.4-2,.1-.8-.2-1.4-.8-1.9s-1-1.1-1.2-1.8c-.2-.8-.7-1.2-1.5-1.4-.7-.2-1.3-.6-1.7-1.1-.5-.7-1.2-.9-2-.9-.7,.1-1.4-.1-2.1-.4-.7-.4-1.3-.3-2,0-.5,.4-1.2,.5-1.6,.6Zm3.9,22.6c.8,1.7,1.5,3.3,2.3,5,.1,.3,.3,.3,.5,.1l.9-.9c.5-.5,1-.7,1.7-.7h1.5c.6,0,.7-.1,.5-.7-.6-1.5-1.3-3-1.9-4.5-.1-.1-.1-.3-.2-.4-.2,.2-.3,.3-.4,.5-.7,.8-1.7,1.2-2.7,1.1-.8-.1-1.5,.1-2.2,.5Zm-7.7-2.1c-.2,.4-.3,.8-.5,1.1-.5,1.2-1.1,2.5-1.6,3.7q-.3,.7,.5,.7h.1c2.7,0,2.1-.3,3.9,1.6,.4,.4,.5,.3,.7-.2,.6-1.4,1.3-2.8,1.9-4.2l.3-.6c-.9-.5-1.1-.6-2-.5h-.6c-1.1-.1-2-.7-2.7-1.6Zm-1.9-38.4c0,.7-.1,1.5,0,2.2,0,.2,.4,.6,.6,.6,.7,.1,1.5,0,2.2,0l-2.8-2.8Z"/>
  <path class="cls-1" d="M20.5,13.7h-5.9c-1.3,0-2.4-1-2.5-2.2-.1-1.3,.6-2.4,1.9-2.7,.2-.1,.4-.1,.6-.1h11.8c1.2,0,2.2,.8,2.5,2,.2,1.2-.3,2.4-1.4,2.8-.4,.2-.8,.2-1.2,.2h-5.8Zm-.1-3.4h-5.8c-.6,0-.9,.3-.9,.8s.4,.8,.9,.9h11.7c.6,0,.9-.5,.8-1s-.5-.6-.9-.6c-1.9,0-3.8-.1-5.8-.1Z"/>
  <path class="cls-1" d="M20.4,18.7H8.6c-.4,0-.8-.4-.8-.8s.3-.8,.7-.9h23.8c.4,.1,.7,.5,.7,.9s-.3,.7-.7,.8h-11.9Z"/>
  <path class="cls-1" d="M19.6,21.3h10.6c.2,0,.5,0,.6,.1,.2,.2,.5,.5,.5,.8s-.3,.6-.5,.7c-.1,.1-.4,.1-.6,.1H8.9c-.6,0-1-.4-1-.9s.4-.8,1-.8h10.7Z"/>
  <path class="cls-1" d="M17.5,39.8H9c-.8,0-1.2-.3-1.2-.9s.4-.8,1.2-.8H26.4c.4,.1,.7,.4,.7,.8s-.3,.7-.7,.8h-.5c-2.8,.1-5.6,.1-8.4,.1Z"/>
  <path class="cls-1" d="M17.1,33.9h8.2c.3,0,.6,.1,.8,.2,.5,.4,.3,1.2-.4,1.4H8.8c-.6,0-.9-.4-.9-.9s.4-.8,.9-.8c2.7,.1,5.5,.1,8.3,.1Z"/>
  <path class="cls-1" d="M20,31.4h-5.4c-.6,0-.9-.3-.9-.8s.4-.8,.9-.9h10.7c.5,0,.9,.4,.9,.8,0,.5-.4,.8-.9,.8-1.7,.1-3.5,.1-5.3,.1Z"/>
  <path class="cls-1" d="M13.3,44h-4.4c-.6,0-1-.3-1-.9,0-.5,.4-.8,1-.8h8.9c.6,0,1,.3,1,.8s-.4,.8-1,.8c-1.5,.1-3,.1-4.5,.1Z"/>
  <path class="cls-1" d="M13.3,27.2h-4.8c-.4-.1-.6-.4-.6-.8s.2-.7,.6-.8c.2-.1,.4-.1,.6-.1h9.1c.4,.1,.7,.4,.6,.9,0,.4-.3,.7-.7,.8h-4.8Z"/>
  <path class="cls-1" d="M24.2,27.2h-2.8c-.6,0-1-.3-1-.8s.4-.9,1-.9h5.5c.6,0,1,.3,1,.8s-.4,.8-1,.9h-2.7Z"/>
  <path class="cls-1" d="M10,31.4h-1.3c-.5,0-.9-.4-.9-.8s.4-.8,.8-.8h2.5c.5,0,.9,.4,.9,.8,0,.5-.4,.8-.9,.8h-1.1Z"/>
  <path class="cls-1" d="M40.7,25.5c4.6,0,8.4,3.8,8.3,8.4,0,4.7-3.8,8.4-8.5,8.4s-8.3-3.8-8.3-8.5,3.8-8.4,8.5-8.3Zm0,1.7c-3.7,0-6.7,3-6.8,6.7,0,3.7,3,6.7,6.7,6.8,3.7,0,6.7-3,6.7-6.7,.1-3.8-2.9-6.8-6.6-6.8Z"/>
  <path class="cls-1" d="M38.9,35.2l3.4-3.4c.2-.2,.5-.4,.8-.4,.2,0,.6,.3,.7,.5,.1,.3,0,.7-.2,.9-.3,.5-.8,.8-1.2,1.2l-2.7,2.7c-.6,.6-1,.6-1.6,0l-.5-.5c-.4-.4-.5-.9-.1-1.3,.3-.4,.8-.4,1.3,0,0,.2,.1,.2,.1,.3Z"/>
</svg>