<?xml version="1.0" encoding="utf-8"?>
<!-- Generator: Adobe Illustrator 26.1.0, SVG Export Plug-In . SVG Version: 6.00 Build 0)  -->
<svg version="1.1" id="Capa_1" xmlns="http://www.w3.org/2000/svg" xmlns:xlink="http://www.w3.org/1999/xlink" x="0px" y="0px"
	 viewBox="0 0 512 512" style="enable-background:new 0 0 512 512;" xml:space="preserve">
<style type="text/css">
	.st0{fill:#E153C8;}
</style>
<g>
	<g>
		<path class="st0" d="M250.2,119.9c4,0,7.3-3.3,7.3-7.3c0-4-3.3-7.3-7.3-7.3h-95.8c-4,0-7.3,3.3-7.3,7.3c0,4,3.3,7.3,7.3,7.3H250.2
			z"/>
		<path class="st0" d="M114.3,162c0,4,3.3,7.3,7.3,7.3h161.6c4,0,7.3-3.3,7.3-7.3c0-4-3.3-7.3-7.3-7.3H121.5
			C117.5,154.7,114.3,158,114.3,162z"/>
		<path class="st0" d="M121.5,203.1h161.6c4,0,7.3-3.3,7.3-7.3c0-4-3.3-7.3-7.3-7.3H121.5c-4,0-7.3,3.3-7.3,7.3
			C114.3,199.8,117.5,203.1,121.5,203.1z"/>
		<path class="st0" d="M121.5,270.9h55.2c4,0,7.3-3.3,7.3-7.3c0-4-3.3-7.3-7.3-7.3h-55.2c-4,0-7.3,3.3-7.3,7.3
			C114.3,267.6,117.5,270.9,121.5,270.9z"/>
		<path class="st0" d="M117.5,24.9H100c-5.6,0-10.2,4.5-10.2,10.2v23h-23c-5.6,0-10.2,4.5-10.2,10.2v370.6c0,5.6,4.5,10.2,10.2,10.2
			h87.6h10.2h130.1l41.1,35c2.4,2,5.3,3.1,8.3,3.1c2.9,0,5.9-1.1,8.3-3.1l71.9-61.2c19.6-16.7,31-41.2,31-67.1v-9.1V342v-66.5
			c0-4.5-2.3-8.5-6.1-10.9L414.3,243l-14.4-9l-18.7-11.6v-92.3v-5.8V35.1c0-5.6-4.5-10.2-10.2-10.2H147.2H117.5h5.5 M147.2,24.9
			h-9.5 M104.4,39.4h262.2v84.9v5.8v83.4l-15.8-9.8c-1-0.6-1.9-1.1-2.9-1.4V68.2c0-5.6-4.5-10.2-10.2-10.2H104.4V39.4z M164.6,434.5
			h-10.2H71.2V72.6h262.2v133.5l-44.1,27.3c0.7-1.1,1.1-2.3,1.1-3.8c0-4-3.3-7.3-7.3-7.3H121.5c-4,0-7.3,3.3-7.3,7.3
			c0,4,3.3,7.3,7.3,7.3h161.6c0.2,0,0.4,0,0.6,0l-31.3,19.4h-52.5c-4,0-7.3,3.3-7.3,7.3s3.3,7.3,7.3,7.3h34c-0.6,1.5-0.9,3-0.9,4.6
			v14.7H121.5c-4,0-7.3,3.3-7.3,7.3s3.3,7.3,7.3,7.3H233V324H121.5c-4,0-7.3,3.3-7.3,7.3s3.3,7.3,7.3,7.3H233v17.1
			c0,0.8,0,1.5,0,2.2H121.5c-4,0-7.3,3.3-7.3,7.3s3.3,7.3,7.3,7.3h113c3.8,19.4,14,37.3,29.3,50.3l13.7,11.7L164.6,434.5
			L164.6,434.5z M440.8,355.7c0,21.6-9.4,42-25.8,56l-70.8,60.4l-70.8-60.4c-16.4-14-25.8-34.4-25.8-56v-79.2l96.7-59.9l96.7,59.9
			v70.1l0,0L440.8,355.7L440.8,355.7z"/>
		<path class="st0" d="M277.7,331c0,36.7,29.8,66.5,66.5,66.5s66.5-29.8,66.5-66.5s-29.8-66.5-66.5-66.5S277.7,294.4,277.7,331
			L277.7,331z M396.1,331c0,28.6-23.3,52-52,52s-52-23.3-52-52c0-28.6,23.3-52,52-52C372.8,279.1,396.1,302.4,396.1,331z"/>
		<path class="st0" d="M329.2,323.9c-2.8-2.8-7.5-2.8-10.3,0c-2.8,2.8-2.8,7.5,0,10.3l17.5,17.5c1.5,1.5,3.3,2.1,5.1,2.1
			s3.7-0.7,5.1-2.1l27.2-27.2c2.8-2.8,2.8-7.5,0-10.3c-2.8-2.8-7.5-2.8-10.3,0l-22,22L329.2,323.9z"/>
	</g>
</g>
</svg>
