<?xml version="1.0" encoding="utf-8"?>
<!-- Generator: Adobe Illustrator 26.1.0, SVG Export Plug-In . SVG Version: 6.00 Build 0)  -->
<svg version="1.1" id="Capa_1" xmlns="http://www.w3.org/2000/svg" xmlns:xlink="http://www.w3.org/1999/xlink" x="0px" y="0px"
	 viewBox="0 0 512 512" style="enable-background:new 0 0 512 512;" xml:space="preserve">
<style type="text/css">
	.st0{fill:#E153C8;}
</style>
<g id="XMLID_36_">
	<g id="XMLID_37_">
		<path class="st0" d="M475.7,275.4H466v-68.1c0-26.8-18.8-49.3-44-55l-44.3-76.6c-6.5-11.2-17-19.3-29.5-22.6
			c-8.8-2.4-18-2.2-26.5,0.4l-32.2-32.2c-18.9-18.9-49.7-18.9-68.7,0L91.2,151H63.5c-31.1,0-56.4,25.3-56.4,56.4v241.1
			c0,31.1,25.3,56.4,56.4,56.4h216.8h27.9h101.4c31.1,0,56.4-25.3,56.4-56.4v-68.1h9.7c16.1,0,29.2-13.1,29.2-29.2v-46.7
			C504.9,288.5,491.8,275.4,475.7,275.4z M343.2,71.9L343.2,71.9c7.5,2,13.8,6.8,17.7,13.6l37.8,65.5H189.2l132-76.2
			C327.9,70.9,335.7,69.9,343.2,71.9z M234.6,35.1c5.5-5.5,12.8-8.5,20.6-8.5c7.8,0,15.1,3,20.6,8.5l27.5,27.5L150.2,151h-31.6
			L234.6,35.1z M446.5,448.5c0,20.4-16.6,36.9-36.9,36.9H308.2h-27.9H63.5c-20.4,0-36.9-16.6-36.9-36.9V207.4
			c0-20.4,16.6-36.9,36.9-36.9h346.1c20.4,0,36.9,16.6,36.9,36.9v68.1h-71.9c-28.9,0-52.5,23.6-52.5,52.5s23.6,52.5,52.5,52.5h71.9
			V448.5z M485.4,351.3c0,5.4-4.4,9.7-9.7,9.7H374.6c-18.2,0-33.1-14.8-33.1-33.1c0-18.2,14.8-33.1,33.1-33.1h101.1
			c5.4,0,9.7,4.4,9.7,9.7L485.4,351.3L485.4,351.3z"/>
		<path id="XMLID_39_" class="st0" d="M373,318.2c-2.6,0-5.1,1-6.9,2.8s-2.8,4.3-2.8,6.9s1,5.1,2.8,6.9s4.3,2.8,6.9,2.8
			s5.1-1,6.9-2.8s2.8-4.3,2.8-6.9s-1-5.1-2.8-6.9C378,319.3,375.5,318.2,373,318.2z"/>
	</g>
</g>
</svg>
