<?xml version="1.0" encoding="utf-8"?>
<!-- Generator: Adobe Illustrator 26.1.0, SVG Export Plug-In . SVG Version: 6.00 Build 0)  -->
<svg version="1.1" id="Capa_1" xmlns="http://www.w3.org/2000/svg" xmlns:xlink="http://www.w3.org/1999/xlink" x="0px" y="0px"
	 viewBox="0 0 467.8 391.6" style="enable-background:new 0 0 467.8 391.6;" xml:space="preserve">
<style type="text/css">
	.st0{fill:#E153C8;}
</style>
<g>
	<path class="st0" d="M31.9,249.1c0.9-4.4,1.5-8.8,2.7-13c7.4-26.1,23.6-44.3,48.7-54.7c0.8-0.4,1.7-0.7,2.5-1.1
		c-26.1-20.3-22.8-53.4-5.6-70.4c17.9-17.6,46.6-17.7,64.7-0.4c16.9,16.1,21.7,49.3-4.5,70.2c8.6,5,17.3,10.1,26.5,15.5
		c10.2-8.4,22.1-15,36.1-19.4c-18.5-12.6-28.2-29.5-27.9-51.3c0.2-17.2,7.3-31.5,20.1-42.9C219,60.4,257,63.5,278,88.3
		c20.8,24.6,18.6,65.6-14.4,87.5c13.9,4.5,26.1,11,36.3,19.6c9.3-5.5,18.1-10.7,27.1-15.9c-13.1-10.2-19.8-24.1-18.4-41.4
		c1-12.2,6.4-22.3,15.6-30.4c18.1-16.1,46.6-14.7,63.5,2.8c16.5,17.1,19.4,49.3-6.2,69.5c36,15.4,53.9,42.6,54.1,82.2
		c-33.1,0-65.6,0-98.6,0c0.2,4.4,0.8,8.4,0.5,12.4c-0.4,6.6-0.4,13.5-2.3,19.8c-5.4,17.8-21,29-40.5,29.2c-41,0.3-82,0.4-122.9,0
		c-25.4-0.2-42.8-18.7-42.9-44.2c0-5.5,0-11,0-16.8c-0.5,0-1.5-0.2-2.5-0.2c-30.9,0-61.7,0-92.6,0c-0.7,0-1.3,0.1-2,0.2
		C31.9,258,31.9,253.6,31.9,249.1z M233,310.8c2.4,0,4.7,0,7.1,0c19.2-0.1,38.3,0.2,57.5-0.3c13.8-0.4,25.6-12.3,26.7-26
		c1.9-24-4.3-45.6-18.9-64.9c-23.1-30.6-66.2-43.7-102.1-30.4c-34.7,12.9-55.2,38-60.8,74.7c-1.2,7.9-1.3,16.4,0.2,24.2
		c2.7,14.1,14.7,22.6,30,22.6C192.9,310.9,213,310.8,233,310.8z M232.9,171.2c25.3,0.1,45.7-20.1,45.8-45.3
		c0.1-25.2-20.2-45.6-45.5-45.6c-25.2-0.1-45.6,20.3-45.6,45.5C187.5,150.7,207.9,171.2,232.9,171.2z M422.3,249.1
		c-4.9-28-19.5-47.6-46.2-56.8c-24.1-8.3-46.1-3.2-66.1,12.6c0.8,1,1.2,1.6,1.7,2.2c10.1,11.7,17.4,24.9,21.7,39.7
		c0.8,2.8,2.5,2.5,4.4,2.5c26.8,0,53.5,0,80.3,0C419.4,249.3,420.5,249.2,422.3,249.1z M155.9,204.3c-20.1-17.4-49.6-21.1-73.8-8.6
		c-21.5,11.1-33.7,29-37.2,53.2c1.2,0.1,1.8,0.3,2.5,0.3c27.3,0,54.6,0,81.9,0.1c2.3,0,3-0.9,3.8-2.9c2.4-6.6,4.6-13.4,8-19.6
		C145.4,219.1,150.8,212,155.9,204.3z M387.5,144.1c1.2-16.9-11.9-34-31.9-34.8c-16.7-0.7-33,11.7-34.4,31.6
		c-1.3,17.7,13.1,33.8,32.2,34.7C371.1,176.4,386.7,162.3,387.5,144.1z M145.6,140.8c-0.7-18.6-16.7-32.2-34-31.5
		c-20.3,0.8-33.1,17.6-32.2,34.6c1.1,19.9,17.2,32.6,34.3,31.7C132.9,174.5,147.1,158.6,145.6,140.8z"/>
</g>
</svg>
