<?xml version="1.0" encoding="utf-8"?>
<!-- Generator: Adobe Illustrator 26.1.0, SVG Export Plug-In . SVG Version: 6.00 Build 0)  -->
<svg version="1.1" id="Capa_1" xmlns="http://www.w3.org/2000/svg" xmlns:xlink="http://www.w3.org/1999/xlink" x="0px" y="0px"
	 viewBox="0 0 511 511" style="enable-background:new 0 0 511 511;" xml:space="preserve">
<style type="text/css">
	.st0{fill:#E153C8;}
</style>
<g>
	<path class="st0" d="M418.7,248.1l62.2-62.2c3.6-3.6,5.6-8.4,5.6-13.5s-2-9.9-5.6-13.5L333.2,11.2c-3.6-3.6-8.4-5.6-13.5-5.6
		c-2.5,0-5,0.5-7.3,1.5c-7.2,3-11.8,9.9-11.8,17.7V106H89.1c-10.5,0-19.1,8.6-19.1,19.1v94.5c0,10.5,8.6,19.1,19.1,19.1h27.3
		L30.1,325c-7.5,7.5-7.5,19.6,0,27l43.7,43.7c1.6,1.6,3.6,2.4,5.8,2.4s4.3-0.9,5.8-2.4c1.6-1.6,2.4-3.6,2.4-5.8s-0.9-4.3-2.4-5.8
		l-43.7-43.7c-0.5-0.5-0.8-1.1-0.8-1.8c0-0.7,0.3-1.3,0.8-1.8L189.5,189c0.5-0.5,1.1-0.8,1.7-0.8c0.5,0,0.9,0.1,1.1,0.2
		c0.6,0.2,1.6,0.9,1.6,2.4v89.6c0,4.6,3.7,8.3,8.3,8.3h76.3h7h15v31.4c0,7.8,4.6,14.7,11.8,17.7c2.3,1,4.8,1.5,7.3,1.5
		c5.1,0,9.9-2,13.5-5.6l44.9-44.9h43.8c1.4,0,2.6,1.2,2.6,2.6v94.5c0,1.4-1.2,2.6-2.6,2.6H202.2c-4.6,0-8.3,3.7-8.3,8.3v89.6
		c0,1.5-1,2.1-1.6,2.4c-0.2,0.1-0.6,0.2-1.1,0.2c-0.7,0-1.2-0.3-1.7-0.8l-80.3-80.3c-1.6-1.6-3.6-2.4-5.8-2.4
		c-2.2,0-4.3,0.9-5.8,2.4c-1.6,1.6-2.4,3.6-2.4,5.8c0,2.2,0.9,4.3,2.4,5.8l80.3,80.3c3.6,3.6,8.4,5.6,13.5,5.6c2.5,0,5-0.5,7.3-1.5
		c7.2-3,11.8-9.9,11.8-17.7V405h211.4c10.5,0,19.1-8.6,19.1-19.1v-94.5c0-10.5-8.6-19.1-19.1-19.1h-27.3l23.4-23.4
		C418.2,248.7,418.5,248.4,418.7,248.1z M300.5,272.1h-15h-7h-68v-33.4h90V272.1z M321.5,322c-0.5,0.5-1.1,0.8-1.7,0.8
		c-0.5,0-0.9-0.1-1.1-0.2c-0.6-0.2-1.6-0.9-1.6-2.4v-89.6c0-4.6-3.7-8.3-8.3-8.3h-98.3v-31.4c0-7.8-4.6-14.7-11.8-17.7
		c-2.3-1-4.8-1.5-7.3-1.5c-5.1,0-9.9,2-13.5,5.6L133,222.2H89.1c-1.4,0-2.6-1.2-2.6-2.6v-94.5c0-1.4,1.2-2.6,2.6-2.6h219.7
		c4.6,0,8.3-3.7,8.3-8.3V24.7c0-1.5,1-2.1,1.6-2.4c0.2-0.1,0.6-0.2,1.1-0.2c0.7,0,1.2,0.3,1.8,0.8l147.7,147.7
		c0.5,0.5,0.8,1.1,0.8,1.8s-0.3,1.3-0.8,1.8l-67.9,67.9c-0.2,0.2-0.4,0.5-0.7,0.7L321.5,322z"/>
	<polyline class="st0" points="73,394.9 103.3,425.2 118.3,417 80.6,379.3 	"/>
</g>
</svg>
