<?xml version="1.0" encoding="utf-8"?>
<!-- Generator: Adobe Illustrator 26.1.0, SVG Export Plug-In . SVG Version: 6.00 Build 0)  -->
<svg version="1.1" id="Capa_1" xmlns="http://www.w3.org/2000/svg" xmlns:xlink="http://www.w3.org/1999/xlink" x="0px" y="0px"
	 viewBox="0 0 512 512" style="enable-background:new 0 0 512 512;" xml:space="preserve">
<style type="text/css">
	.st0{fill:#E153C8;}
</style>
<g>
	<path class="st0" d="M256,510c-11.1,0-21.6-4.3-29.6-12.1l-31.3-30.2c-3.2-3.1-7.4-4.8-11.9-4.8c-0.8,0-1.6,0.1-2.4,0.2l-43.1,6.1
		c-2,0.3-4.1,0.4-6.1,0.4c-20.7,0-38.3-14.8-41.8-35.3l-7.5-42.8c-0.9-5.2-4.1-9.7-8.8-12.2L35.1,359
		c-20.4-10.8-28.5-35.6-18.3-56.4l19.1-39.1c2.3-4.8,2.3-10.2,0-15l-19.1-39.1c-10.2-20.8-2.1-45.5,18.3-56.4l38.4-20.4
		c4.7-2.5,7.9-6.9,8.8-12.2l7.5-42.8c3.6-20.4,21.2-35.3,41.8-35.3c2,0,4.1,0.1,6.1,0.4l43.1,6.1c0.8,0.1,1.6,0.2,2.4,0.2
		c4.4,0,8.7-1.7,11.9-4.8L226.4,14c8-7.7,18.5-12,29.6-12c11.1,0,21.6,4.3,29.6,12.1l31.3,30.2c3.2,3.1,7.4,4.8,11.9,4.8
		c0.8,0,1.6-0.1,2.4-0.2l43.1-6.1c2-0.3,4.1-0.4,6.1-0.4c20.7,0,38.3,14.8,41.8,35.3l7.5,42.8c0.9,5.2,4.1,9.7,8.8,12.1l38.4,20.4
		c20.4,10.8,28.5,35.6,18.3,56.4l-19.1,39.1c-2.3,4.8-2.3,10.2,0,15l19.1,39.1c10.2,20.8,2.1,45.5-18.3,56.4l-38.4,20.4
		c-4.7,2.5-7.9,6.9-8.8,12.2l-7.5,42.8c-3.6,20.4-21.2,35.3-41.8,35.3c-2,0-4.1-0.1-6.1-0.4l-43.1-6.1c-0.8-0.1-1.6-0.2-2.4-0.2
		c-4.4,0-8.7,1.7-11.9,4.8L285.6,498C277.6,505.7,267.1,510,256,510z M183.3,437.4c11,0,21.5,4.3,29.5,12l31.3,30.2
		c3.2,3.1,7.4,4.8,11.9,4.8c4.4,0,8.7-1.7,11.9-4.8l31.3-30.2c8-7.7,18.5-12,29.5-12c2,0,4.1,0.1,6.1,0.4l43.1,6.1
		c0.8,0.1,1.6,0.2,2.4,0.2c8.3,0,15.4-6,16.8-14.1l7.5-42.8c2.3-13,10.3-24.1,22-30.3l38.4-20.4c8.2-4.3,11.4-14.3,7.3-22.6
		l-19.1-39.1c-5.8-11.9-5.8-25.5,0-37.4l19.1-39.1c4.1-8.3,0.8-18.3-7.3-22.6l-38.4-20.4c-11.7-6.2-19.7-17.2-22-30.3L397,82.1
		c-1.4-8.2-8.5-14.1-16.8-14.1c-0.8,0-1.6,0.1-2.4,0.2l-43.1,6.1c-2,0.3-4.1,0.4-6.1,0.4c-11,0-21.5-4.3-29.5-12l-31.3-30.2
		c-3.2-3.1-7.4-4.8-11.9-4.8c-4.5,0-8.7,1.7-11.9,4.8l-31.3,30.2c-8,7.7-18.5,12-29.5,12c-2,0-4.1-0.1-6.1-0.4L134,68.2
		c-0.8-0.1-1.6-0.2-2.4-0.2c-8.3,0-15.4,6-16.8,14.1l-7.5,42.8c-2.3,13-10.3,24.1-22,30.3L47,175.6c-8.2,4.3-11.4,14.3-7.3,22.6
		l19.1,39.1c5.8,11.9,5.8,25.5,0,37.4l-19.1,39.1c-4.1,8.3-0.8,18.3,7.3,22.6l38.4,20.4c11.7,6.2,19.7,17.2,22,30.3l7.5,42.8
		c1.4,8.2,8.5,14.2,16.8,14.1c0.8,0,1.6-0.1,2.4-0.2l43.1-6.1C179.3,437.5,181.3,437.4,183.3,437.4z"/>
	<path class="st0" d="M158.6,366.2c-3.4,0-6.6-1.3-9-3.7s-3.7-5.6-3.7-9s1.3-6.6,3.7-9l194.9-194.9c2.4-2.4,5.6-3.7,9-3.7
		s6.6,1.3,9,3.7s3.7,5.6,3.7,9s-1.3,6.6-3.7,9L167.6,362.5C165.2,364.9,162,366.2,158.6,366.2z"/>
	<path class="st0" d="M196.9,229.4c-28.7,0-52.1-23.4-52.1-52.1s23.4-52.1,52.1-52.1s52.1,23.4,52.1,52.1S225.7,229.4,196.9,229.4z
		 M196.9,150.6c-14.7,0-26.6,11.9-26.6,26.6c0,14.7,11.9,26.6,26.6,26.6c14.7,0,26.6-11.9,26.6-26.6
		C223.5,162.6,211.6,150.6,196.9,150.6z"/>
	<path class="st0" d="M315.1,386.9c-28.7,0-52.1-23.4-52.1-52.1s23.4-52.1,52.1-52.1c28.8,0,52.1,23.4,52.1,52.1
		S343.8,386.9,315.1,386.9z M315.1,308.1c-14.7,0-26.6,11.9-26.6,26.6s11.9,26.6,26.6,26.6s26.6-11.9,26.6-26.6
		S329.7,308.1,315.1,308.1z"/>
</g>
</svg>
