<?xml version="1.0" encoding="utf-8"?>
<!-- Generator: Adobe Illustrator 26.1.0, SVG Export Plug-In . SVG Version: 6.00 Build 0)  -->
<svg version="1.1" id="Capa_1" xmlns="http://www.w3.org/2000/svg" xmlns:xlink="http://www.w3.org/1999/xlink" x="0px" y="0px"
	 viewBox="0 0 512 512" style="enable-background:new 0 0 512 512;" xml:space="preserve">
<style type="text/css">
	.st0{fill:#E153C8;}
</style>
<g id="_x32_2_documents_2_">
	<path class="st0" d="M177.3,191.5h196.5c4,0,7.4-3.3,7.4-7.4s-3.3-7.4-7.4-7.4H177.3c-4,0-7.4,3.3-7.4,7.4S173.2,191.5,177.3,191.5
		L177.3,191.5z"/>
	<path class="st0" d="M177.3,246.1h196.5c4,0,7.4-3.3,7.4-7.4s-3.3-7.4-7.4-7.4H177.3c-4,0-7.4,3.3-7.4,7.4S173.2,246.1,177.3,246.1
		L177.3,246.1z"/>
	<path class="st0" d="M177.3,300.7h196.5c4,0,7.4-3.3,7.4-7.4s-3.3-7.4-7.4-7.4H177.3c-4,0-7.4,3.3-7.4,7.4S173.2,300.7,177.3,300.7
		L177.3,300.7z"/>
	<path class="st0" d="M377.1,494.2h5.7c15.9,0,28.9-13,28.9-28.9v-5.5h5.5c15.9,0,28.9-13,28.9-28.9V112c0,0,0-0.1,0-0.2
		c-0.1-1.9-0.8-3.6-2.2-5l-87.2-87.1c-1.4-1.4-3.2-2.2-5.2-2.2H134c-15.9,0-28.9,13-28.9,28.9V52L95,52c-14.9,0-27.2,11.3-28.7,25.8
		L66,92.7v372.9c0,15.9,13,28.9,28.9,28.9l224-0.1h5.4H362 M358.8,42.7l62,62h-47.9c-7.8,0-14.1-6.4-14.1-14.1L358.8,42.7
		L358.8,42.7z M396.9,465.4c0,7.8-6.4,14.1-14.1,14.1h-58.3h-5.4L95,479.7c-7.8,0-14.1-6.4-14.1-14.1V81c0-7.8,6.4-14.1,14.1-14.1
		l10.1-0.1v98l0,0v266.4c0,15.9,13,28.9,28.9,28.9h262.8L396.9,465.4L396.9,465.4z M431.2,431c0,7.8-6.4,14.1-14.1,14.1H134
		c-7.8,0-14.1-6.4-14.1-14.1V164.6v-25.7V46.5c0-7.8,6.4-14.1,14.1-14.1h210.1v58.3c0,15.9,13,28.9,28.9,28.9h58.3V431z"/>
</g>
</svg>
