<?xml version="1.0" encoding="utf-8"?>
<!-- Generator: Adobe Illustrator 26.1.0, SVG Export Plug-In . SVG Version: 6.00 Build 0)  -->
<svg version="1.1" id="Capa_1" xmlns="http://www.w3.org/2000/svg" xmlns:xlink="http://www.w3.org/1999/xlink" x="0px" y="0px"
	 viewBox="0 0 36 36" style="enable-background:new 0 0 36 36;" xml:space="preserve">
<style type="text/css">
	.st0{fill:#FFFFFF;}
</style>
<g>
	<g>
		<path class="st0" d="M28.4,22.4c-0.7-0.8-1.6-1.2-2.6-1.2c-0.9,0-1.8,0.4-2.6,1.2l-2.4,2.4c-0.2-0.1-0.4-0.2-0.6-0.3
			c-0.3-0.1-0.5-0.3-0.8-0.4c-2.3-1.4-4.3-3.3-6.3-5.7c-0.9-1.2-1.6-2.2-2.1-3.2c0.6-0.6,1.2-1.2,1.8-1.7c0.2-0.2,0.4-0.4,0.6-0.6
			c1.6-1.6,1.6-3.7,0-5.3l-2.1-2.1c-0.2-0.2-0.5-0.5-0.7-0.7c-0.5-0.5-0.9-1-1.4-1.4C8.7,2.6,7.8,2.2,6.8,2.2S5,2.6,4.3,3.3
			c0,0,0,0,0,0L1.7,5.9c-1,1-1.5,2.2-1.7,3.5c-0.2,2.2,0.5,4.3,1,5.6c1.2,3.3,3.1,6.4,5.8,9.7c3.3,4,7.3,7.1,11.9,9.3
			c1.8,0.8,4.1,1.8,6.7,2c0.2,0,0.3,0,0.5,0c1.8,0,3.2-0.6,4.4-1.9c0,0,0,0,0,0c0.4-0.5,0.9-0.9,1.3-1.4c0.3-0.3,0.7-0.6,1-1
			c0.8-0.8,1.2-1.7,1.2-2.6c0-0.9-0.4-1.8-1.2-2.6L28.4,22.4z M31.2,30.4C31.2,30.4,31.2,30.4,31.2,30.4c-0.3,0.3-0.6,0.6-0.9,0.9
			c-0.5,0.5-1,1-1.5,1.5c-0.8,0.8-1.7,1.2-2.9,1.2c-0.1,0-0.2,0-0.3,0c-2.3-0.1-4.4-1-5.9-1.8c-4.3-2.1-8.1-5-11.2-8.8
			c-2.6-3.1-4.3-6-5.5-9.1C2.2,12.5,2,11,2.1,9.6C2.1,8.8,2.5,8,3.1,7.4l2.6-2.6c0.4-0.3,0.8-0.5,1.2-0.5c0.5,0,0.9,0.3,1.1,0.5
			c0,0,0,0,0,0c0.5,0.4,0.9,0.9,1.4,1.4c0.2,0.2,0.5,0.5,0.7,0.7L12.2,9c0.8,0.8,0.8,1.5,0,2.4c-0.2,0.2-0.4,0.4-0.7,0.7
			c-0.6,0.7-1.2,1.3-1.9,1.9c0,0,0,0,0,0c-0.7,0.7-0.5,1.3-0.4,1.7c0,0,0,0,0,0.1c0.5,1.3,1.3,2.5,2.5,4l0,0
			c2.1,2.6,4.3,4.6,6.8,6.1c0.3,0.2,0.6,0.4,0.9,0.5c0.3,0.1,0.5,0.3,0.8,0.4c0,0,0.1,0,0.1,0.1c0.3,0.1,0.5,0.2,0.8,0.2
			c0.6,0,1-0.4,1.2-0.5l2.6-2.6c0.3-0.3,0.7-0.6,1.2-0.6c0.5,0,0.9,0.3,1.1,0.6c0,0,0,0,0,0l4.2,4.2C31.9,28.8,31.9,29.6,31.2,30.4z
			"/>
		<path class="st0" d="M19.4,8.7c2,0.3,3.8,1.3,5.3,2.7c1.4,1.4,2.4,3.3,2.7,5.2c0.1,0.5,0.5,0.8,1,0.8c0.1,0,0.1,0,0.2,0
			c0.6-0.1,0.9-0.6,0.8-1.2c-0.4-2.4-1.5-4.6-3.3-6.3c-1.7-1.7-3.9-2.9-6.4-3.3c-0.6-0.1-1.1,0.3-1.2,0.8
			C18.5,8.1,18.9,8.6,19.4,8.7z"/>
		<path class="st0" d="M36,16c-0.7-4-2.6-7.6-5.4-10.4C27.7,2.7,24,0.8,20.1,0.1C19.5,0,19,0.4,18.9,1c-0.1,0.6,0.3,1.1,0.8,1.2
			c3.5,0.6,6.8,2.3,9.4,4.8c2.6,2.6,4.2,5.8,4.8,9.3c0.1,0.5,0.5,0.8,1,0.8c0.1,0,0.1,0,0.2,0C35.7,17.1,36.1,16.5,36,16z"/>
	</g>
</g>
</svg>
