<?xml version="1.0" encoding="utf-8"?>
<!-- Generator: Adobe Illustrator 26.1.0, SVG Export Plug-In . SVG Version: 6.00 Build 0)  -->
<svg version="1.1" id="Layer_1" xmlns="http://www.w3.org/2000/svg" xmlns:xlink="http://www.w3.org/1999/xlink" x="0px" y="0px"
	 viewBox="0 0 36 26" style="enable-background:new 0 0 36 26;" xml:space="preserve">
<style type="text/css">
	.st0{fill:#FFFFFF;}
</style>
<g>
	<path class="st0" d="M30.8,24.5H5.2c-1.7,0-3.1-1.5-3.1-3.3V4.8c0-1.8,1.4-3.3,3.1-3.3h25.5c1.7,0,3.1,1.5,3.1,3.3v16.4
		C33.9,23,32.5,24.5,30.8,24.5L30.8,24.5z M5.2,2.8c-1.1,0-1.9,0.9-1.9,2v16.4c0,1.1,0.9,2,1.9,2h25.5c1.1,0,1.9-0.9,1.9-2V4.8
		c0-1.1-0.9-2-1.9-2L5.2,2.8z"/>
	<path class="st0" d="M18,16.7c-0.1,0-0.3-0.1-0.4-0.2L3.2,3.3L4,2.3l14,12.9L32,2.3l0.8,0.9L18.4,16.5C18.3,16.6,18.1,16.7,18,16.7
		z"/>
	<path class="st0" d="M2.9,22.5L12.6,11l0.9,0.8L3.8,23.3L2.9,22.5z"/>
	<path class="st0" d="M22.6,11.8l0.9-0.8l9.7,11.5l-0.9,0.8L22.6,11.8z"/>
</g>
</svg>
