<?xml version="1.0" encoding="utf-8"?>
<!-- Generator: Adobe Illustrator 26.1.0, SVG Export Plug-In . SVG Version: 6.00 Build 0)  -->
<svg version="1.1" id="_x33_0" xmlns="http://www.w3.org/2000/svg" xmlns:xlink="http://www.w3.org/1999/xlink" x="0px" y="0px"
	 viewBox="0 0 200 200" style="enable-background:new 0 0 200 200;" xml:space="preserve">
<style type="text/css">
	.st0{display:none;}
	.st1{display:inline;fill:#0BBBEF;}
	.st2{fill:#0BBBEF;}
</style>
<g class="st0">
	<path class="st1" d="M122.5,121.3c2.2,0,4-1.8,4-4s-1.8-4-4-4s-4,1.8-4,4S120.3,121.3,122.5,121.3z M122.5,116
		c0.7,0,1.3,0.6,1.3,1.3s-0.6,1.3-1.3,1.3c-0.7,0-1.3-0.6-1.3-1.3S121.8,116,122.5,116z"/>
	<path class="st1" d="M135.9,111.7c-0.4-0.9-0.2-2.1,0.6-2.8l1.9-1.9l-5.6-5.6l-1.9,1.9c-0.7,0.7-1.8,0.9-2.8,0.5
		c-0.9-0.4-1.6-1.3-1.6-2.3v-2.7h-2.7c-0.1-2.2-0.5-4.2-1.2-6.1l15.3-15.3c2-2,3.1-4.7,3.1-7.5c0-5.9-4.8-10.7-10.7-10.7
		c-2.9,0-5.6,1.1-7.5,3.1l-15.3,15.3c-2-0.7-4.1-1.1-6.2-1.2c-1.8-3.2-5.2-5.3-9.2-5.3c-1,0-2,0.2-2.9,0.4
		c-2.2-4.3-6.7-7.1-11.7-7.1c-7.3,0-13.3,5.9-13.3,13.3c0,1,0.1,2,0.3,3c-3.2,1-5.6,4.1-5.6,7.6c0,4.4,3.6,8,8,8h9.6
		c-0.2,1.3-0.3,2.7-0.3,4c0,2.9,0.6,5.3,1.4,7.3l-11.8,11.8l-6.6,17.1c-0.2,0.4-0.2,0.8-0.2,1.3c0,2,1.6,3.6,3.6,3.6
		c0.4,0,0.8-0.1,1.3-0.2l17.1-6.6l8.6-8.6c-0.1,0.3-0.1,0.6-0.1,0.9c0,1,0.4,1.9,1,2.7c-0.7,0.7-1,1.6-1,2.7c0,1.8,1.3,3.4,3,3.8
		c1.1,3.2,4.1,5.4,7.6,5.4c3.5,0,6.5-2.2,7.6-5.4c1.7-0.4,3-2,3-3.8c0-0.1,0-0.2,0-0.3l1.6,1.6l1.9-1.9c0.7-0.7,1.8-0.9,2.8-0.5
		c0.9,0.4,1.6,1.3,1.6,2.3v2.7h8v-2.7c0-1,0.6-2,1.6-2.3c0.9-0.4,2.1-0.2,2.8,0.6l1.9,1.9l5.6-5.6l-1.9-1.9
		c-0.7-0.7-0.9-1.8-0.5-2.8c0.4-0.9,1.3-1.6,2.3-1.6h2.7v-8h-2.7C137.3,113.4,136.4,112.7,135.9,111.7L135.9,111.7z M116.1,115.6
		c1.5-1.4,2.9-2.9,4.1-4.5c0.7-0.2,1.5-0.4,2.2-0.4c3.7,0,6.6,3,6.6,6.6s-3,6.6-6.6,6.6s-6.6-3-6.6-6.6
		C115.9,116.7,116,116.2,116.1,115.6L116.1,115.6z M117.7,84.3l6.1-6.1l4.7,4.7l-7.1,7.1C120.5,87.9,119.2,86,117.7,84.3z
		 M119.1,69.7l2.1-2.1l11.4,11.4l-2.1,2.1L119.1,69.7z M130.4,61.8c4.4,0,8.1,3.6,8.1,8.1c0,2.2-0.8,4.1-2.3,5.7l-1.6,1.6
		l-11.4-11.4l1.6-1.6C126.2,62.6,128.2,61.8,130.4,61.8L130.4,61.8z M117.3,71.6l4.7,4.7l-6.1,6.1c-1.7-1.5-3.7-2.8-5.7-3.8
		L117.3,71.6z M121.1,100.1c0,6.9-3.5,10.3-7.1,13.9c-2.5,2.5-5.1,5-6.6,8.7c-0.2,0-0.5-0.1-0.7-0.1h-5.3V116c0-2.2-1.8-4-4-4h-2.7
		c-0.7,0-1.3-0.6-1.3-1.3c0-0.7,0.6-1.3,1.3-1.3H108c2.2,0,4-1.8,4-4s-1.8-4-4-4H97.4c-0.7,0-1.3-0.6-1.3-1.3v-4h6.6
		c3.7,0,6.6-3,6.6-6.6s-3-6.6-6.6-6.6c0,0-0.1,0-0.1,0c0-0.4,0.1-0.9,0.1-1.3c0-0.8-0.1-1.7-0.3-2.5
		C112.9,80.3,121.1,89.3,121.1,100.1L121.1,100.1z M92.1,126.6c0-0.7,0.6-1.3,1.3-1.3h13.3c0.7,0,1.3,0.6,1.3,1.3
		c0,0.7-0.6,1.3-1.3,1.3H93.4C92.7,127.9,92.1,127.3,92.1,126.6z M75.4,126.6l9.7-9.7c1.6,1.6,3.1,3.2,4.3,5.2l-9.3,9.2L75.4,126.6z
		 M61.7,88.2c0-2.9,2.4-5.3,5.3-5.3c2.9,0,5.3,2.4,5.3,5.3h2.7c0-4.3-3.4-7.7-7.6-7.9c-0.2-0.8-0.3-1.7-0.3-2.7
		C67,71.7,71.7,67,77.6,67c3.9,0,7.4,2.1,9.2,5.4c-2.9,1.7-4.8,4.6-5.2,8c-2.3,0.6-4,2.7-4,5.1h2.7c0-1.5,1.2-2.7,2.7-2.7
		s2.7,1.2,2.7,2.7h2.7c0-2.4-1.7-4.4-3.9-5.1c0.6-3.8,3.8-6.8,7.9-6.8c4.4,0,8,3.6,8,8c0,0.7-0.1,1.4-0.3,2.1
		c-2.2,1.1-3.7,3.3-3.7,5.9h2.7c0-2.2,1.8-4,4-4s4,1.8,4,4s-1.8,4-4,4H67C64,93.5,61.7,91.1,61.7,88.2z M93.4,96.1v4
		c0,2.2,1.8,4,4,4H108c0.7,0,1.3,0.6,1.3,1.3c0,0.7-0.6,1.3-1.3,1.3H94.7c-2.2,0-4,1.8-4,4s1.8,4,4,4h2.7c0.7,0,1.3,0.6,1.3,1.3v6.6
		h-5.3c-0.2,0-0.5,0-0.7,0.1c-1.5-3.7-4.1-6.3-6.6-8.7c-3.7-3.6-7.1-7-7.1-13.9c0-1.3,0.2-2.7,0.4-4H93.4L93.4,96.1z M83.3,115
		l-9.7,9.7l-4.7-4.7l10.1-10.1C80.2,111.8,81.7,113.5,83.3,115L83.3,115z M67.5,122.3l10.3,10.3l-8.8,3.4l-5-5L67.5,122.3z
		 M62.9,138.4c-0.6,0.2-1.2-0.2-1.2-0.8c0-0.1,0-0.2,0-0.3l1.3-3.5l3.3,3.3L62.9,138.4z M100,138.5c-2,0-3.7-1-4.6-2.7h9.3
		C103.7,137.4,102,138.5,100,138.5L100,138.5z M106.6,133.2H93.4c-0.7,0-1.3-0.6-1.3-1.3c0-0.7,0.6-1.3,1.3-1.3h13.3
		c0.7,0,1.3,0.6,1.3,1.3S107.4,133.2,106.6,133.2z M138.4,118.7L138.4,118.7c-2.2,0-4.1,1.2-4.9,3.2c-0.8,2-0.4,4.2,1.1,5.7l0,0
		l-1.9,1.9l0,0c-1.5-1.5-3.7-1.9-5.7-1.1c-1.9,0.8-3.2,2.7-3.2,4.8v0.1h-2.7v-0.1c0-2.1-1.2-4-3.2-4.8c-2-0.8-4.2-0.4-5.7,1.1l0,0
		l-1.8-1.8c0.1-0.3,0.2-0.7,0.2-1.1c0-0.9-0.3-1.8-0.9-2.5c0.8-2.2,2.1-4,3.7-5.6c0.6,4.6,4.5,8.1,9.2,8.1c5.1,0,9.3-4.1,9.3-9.3
		s-4.3-9.2-9.4-9.2c-0.1,0-0.2,0-0.4,0c0.9-1.9,1.5-4,1.7-6.6h0v0.1c0,2.1,1.2,4,3.2,4.8c2,0.8,4.2,0.4,5.7-1.1l0,0l1.9,1.9l0,0
		c-1.5,1.5-1.9,3.7-1.1,5.7c0.8,2,2.7,3.2,4.8,3.2h0.1L138.4,118.7L138.4,118.7z"/>
</g>
<g>
	<path class="st2" d="M134.1,124.3c0.5,1.1,0.9,2,1.3,2.9c0.4,0.8,0.8,1.5,0.2,2.3c-0.6,0.8-1.4,0.5-2.2,0.4
		c-0.8-0.1-1.7-0.5-2.3-0.2c-0.6,0.3-0.9,1.3-1.3,1.9c-0.2,0.3-0.4,0.6-0.5,0.9c-0.8,1.1-2,1-2.6-0.2c-0.9-1.8-1.7-3.6-2.5-5.4
		c-0.2-0.4-0.4-0.7-0.6-1.2c-0.4,0.9-0.8,1.7-1.2,2.5c-0.6,1.3-1.3,2.6-1.9,3.9c-0.3,0.6-0.7,1-1.4,1.1c-0.7,0-1.1-0.4-1.4-0.9
		c-0.4-0.8-0.9-1.6-1.4-2.3c-0.1-0.2-0.5-0.4-0.8-0.4c-0.8,0-1.7,0.2-2.5,0.4c-0.7,0.1-1.3,0-1.7-0.5c-0.4-0.6-0.3-1.2,0-1.8
		c0.5-1.1,1-2.1,1.6-3.4c-0.4,0-0.8,0-1.1,0c-16.2,0-32.3,0-48.5,0c-0.5,0-1,0-1.4-0.1c-1.5-0.3-2.6-1.5-2.8-3c0-0.2,0-0.5,0-0.7
		c0-16.6,0-33.3,0-49.9c0-0.5,0-1,0.2-1.4c0.4-1.3,1.3-2.1,2.5-2.3c0.4-0.1,0.9-0.1,1.4-0.1c24.6,0,49.2,0,73.8,0
		c0.4,0,0.8,0,1.2,0.1c1.7,0.2,2.8,1.5,2.9,3.2c0,0.3,0,0.5,0,0.8c0,16.5,0,33,0,49.5c0,2.8-1.3,4-4,4
		C136,124.3,135.1,124.3,134.1,124.3z M132.3,120.5c0.5,1.3,0.5,1.3,1.8,1.3c0.9,0,1.9,0,2.8,0c1.4,0,1.6-0.2,1.6-1.6
		c0-16.5,0-32.9,0-49.4c0-1.5-0.2-1.7-1.7-1.7c-24.6,0-49.2,0-73.8,0c-1.5,0-1.7,0.2-1.7,1.7c0,16.4,0,32.9,0,49.3
		c0,0.2,0,0.5,0,0.7c0,0.6,0.4,0.9,0.9,0.9c0.3,0,0.6,0,0.9,0c16.6,0,33.1,0,49.7,0c1.2,0,1.2,0,1.6-1.3c-0.1-0.1-0.2-0.1-0.3-0.2
		c-1.5-0.9-2.2-2.2-2.2-3.9c0-0.6-0.2-1.2-0.5-1.7c-0.8-1.5-0.8-2.9,0-4.4c0.3-0.5,0.5-1.2,0.5-1.7c0-1.8,0.8-3.1,2.4-4.1
		c0.4-0.3,0.9-0.7,1.2-1.2c0.9-1.5,2.2-2.2,3.9-2.3c0.6,0,1.3-0.2,1.8-0.5c1.5-0.8,2.9-0.8,4.4,0c0.6,0.3,1.3,0.5,1.9,0.5
		c1.7,0.1,2.9,0.8,3.8,2.2c0.3,0.5,0.7,0.9,1.2,1.2c1.6,0.9,2.3,2.3,2.3,4c0,0.6,0.2,1.2,0.4,1.7c0.8,1.6,0.9,3.1,0,4.6
		c-0.2,0.4-0.4,0.8-0.4,1.3C134.9,118,134.2,119.6,132.3,120.5z M123.4,122.7c0.4-0.1,0.8-0.2,1-0.4c0.9-0.6,1.9-0.8,2.9-0.8
		c0.8,0,1.4-0.4,1.9-1.1c0.6-0.8,1.3-1.5,2.1-2.1c0.7-0.5,1-1.1,1.2-2c0.1-0.9,0.4-1.9,0.7-2.7c0.4-0.8,0.4-1.5,0-2.4
		c-0.4-0.8-0.6-1.8-0.7-2.7c-0.1-0.9-0.4-1.5-1.2-2.1s-1.4-1.2-2-1.9s-1.1-1.1-2.1-1.2c-0.9-0.1-1.9-0.4-2.7-0.7s-1.5-0.4-2.4,0
		s-1.8,0.6-2.7,0.7c-0.9,0.1-1.5,0.5-2.1,1.2c-0.5,0.7-1.2,1.4-1.9,1.9c-0.8,0.6-1.2,1.2-1.3,2.1c0,0.9-0.3,1.8-0.7,2.6
		c-0.4,0.9-0.4,1.6,0,2.5c0.4,0.8,0.6,1.7,0.7,2.6c0.1,0.9,0.4,1.5,1.1,2.1c0.8,0.6,1.5,1.3,2,2c0.6,0.8,1.2,1.1,2.1,1.2
		c0.9,0.1,1.8,0.4,2.7,0.7C122.6,122.3,123,122.5,123.4,122.7z M121.3,124.4c-0.5-0.2-0.8-0.4-1.3-0.4c-1.4,0-2.8-0.2-3.9-1.3
		c-0.8,1.6-1.5,3.1-2.2,4.7c0.6-0.1,1-0.1,1.5-0.2c1.4-0.2,1.7-0.1,2.4,1.1c0.3,0.4,0.6,0.9,0.9,1.5
		C119.7,127.9,120.5,126.2,121.3,124.4z M128,129.7c0.4-0.7,0.7-1.2,1.1-1.7c0.6-1,1-1.2,2.1-1c0.5,0.1,1,0.2,1.7,0.3
		c-0.8-1.7-1.5-3.1-2.3-4.7c-1.1,1.1-2.3,1.3-3.6,1.3c-0.5,0-1,0.3-1.5,0.4C126.4,126.2,127.2,127.9,128,129.7z"/>
	<path class="st2" d="M132.8,81.1c-1.3-0.7-2.5-1.2-3.6-2c-1.1-0.8-1.8-1.9-2.1-3.1c-0.2-0.8-0.6-0.9-1.3-0.9c-13,0-26.1,0-39.1,0
		c-4.4,0-8.7,0-13.1,0c-0.6,0-0.8,0.2-1,0.8c-0.7,2.4-2.3,4-4.7,4.7c-0.5,0.1-0.7,0.4-0.7,0.9c0,9.3,0,18.7,0,28
		c0,0.4,0,0.7,0.4,0.8c2.7,0.7,4.4,2.5,5.1,5.1c0,0.1,0.1,0.2,0.1,0.4c0.3,0,0.7,0,1,0c10.9,0,21.9,0,32.8,0c0.4,0,0.7,0,1,0.1
		c0.6,0.1,0.9,0.6,0.9,1.3c0,0.6-0.4,1-1,1.1c-0.2,0-0.5,0-0.7,0c-11.4,0-22.9,0-34.3,0c-1.5,0-1.8-0.3-2.1-1.7
		c-0.4-2.2-1.7-3.6-4-3.9c-1.4-0.2-1.7-0.6-1.7-2.1c0-10,0-20,0-29.9c0-1.6,0.3-1.9,1.9-2.1c2-0.4,3.4-1.8,3.8-3.8
		c0.3-1.5,0.6-1.8,2.2-1.8c18.1,0,36.3,0,54.4,0c1.6,0,2,0.3,2.2,1.9c0.3,2,1.9,3.5,3.9,3.8c1.7,0.2,2,0.6,2,2.3
		c0,6.6,0,13.3,0,19.9c0,0.1,0,0.2,0,0.2c0,1.1-0.4,1.7-1.2,1.7s-1.2-0.6-1.2-1.7c0-5.1,0-10.3,0-15.4
		C132.8,83.8,132.8,82.3,132.8,81.1z"/>
	<path class="st2" d="M99.9,83.3c-7.5,0-15,0-22.5,0c-0.3,0-0.6,0-0.9,0c-0.7-0.1-1.2-0.6-1.2-1.2c0-0.7,0.4-1.1,1.1-1.2
		c0.2,0,0.5,0,0.7,0c15.1,0,30.2,0,45.4,0c1.3,0,1.9,0.4,1.9,1.3c0,0.8-0.6,1.2-1.8,1.2C115.1,83.3,107.5,83.3,99.9,83.3z"/>
	<path class="st2" d="M100,96.4c-7.5,0-15.1,0-22.6,0c-0.4,0-0.8,0.1-1-0.1c-0.4-0.3-0.8-0.7-0.8-1.1c-0.1-0.6,0.3-1,0.8-1.2
		c0.3-0.1,0.6-0.1,0.9-0.1c15.2,0,30.4,0,45.6,0c0.3,0,0.7,0,0.9,0.1c0.5,0.2,0.9,0.6,0.8,1.2c-0.1,0.4-0.4,0.8-0.8,1.1
		c-0.3,0.2-0.7,0.1-1.1,0.1C115,96.4,107.5,96.4,100,96.4z"/>
	<path class="st2" d="M105.9,87.4c5.6,0,11.1,0,16.7,0c0.3,0,0.7,0,0.9,0c0.6,0.1,0.9,0.5,0.9,1.2s-0.3,1-0.9,1.2
		c-0.3,0-0.6,0-0.9,0c-11.2,0-22.3,0-33.5,0c-1.3,0-1.9-0.4-1.9-1.3c0-0.8,0.6-1.2,1.8-1.2C94.7,87.4,100.3,87.4,105.9,87.4z"/>
	<path class="st2" d="M100,104.9c-2.5,0-5,0-7.5,0c-0.3,0-0.5,0-0.8,0c-0.6-0.1-1-0.5-1-1.1c0-0.6,0.3-1,0.9-1.2c0.3,0,0.5,0,0.8,0
		c5,0,10,0,14.9,0c1.2,0,1.7,0.4,1.8,1.2c0,0.8-0.6,1.2-1.8,1.2C104.9,104.9,102.4,104.9,100,104.9z"/>
	<path class="st2" d="M79.7,89.8c-1,0-1.9,0-2.9,0c-0.8,0-1.3-0.5-1.3-1.2c0-0.7,0.5-1.2,1.4-1.2c2,0,3.9,0,5.9,0
		c0.9,0,1.4,0.5,1.4,1.2c0,0.7-0.5,1.2-1.4,1.2C81.6,89.8,80.7,89.8,79.7,89.8z"/>
	<path class="st2" d="M130.8,112.5c-0.1,4.2-3.5,7.5-7.5,7.4c-4.2-0.1-7.5-3.5-7.4-7.5c0.1-4.2,3.5-7.5,7.6-7.4
		C127.6,105.1,130.9,108.4,130.8,112.5z M128.4,112.4c0-2.8-2.3-5-5-5c-2.8,0-5,2.3-5.1,5c0,2.8,2.3,5.1,5.1,5.1
		C126.1,117.5,128.4,115.2,128.4,112.4z"/>
</g>
</svg>
