<?xml version="1.0" encoding="utf-8"?>
<!-- Generator: Adobe Illustrator 26.1.0, SVG Export Plug-In . SVG Version: 6.00 Build 0)  -->
<svg version="1.1" id="Capa_1" xmlns="http://www.w3.org/2000/svg" xmlns:xlink="http://www.w3.org/1999/xlink" x="0px" y="0px"
	 viewBox="0 0 200 200" style="enable-background:new 0 0 200 200;" xml:space="preserve">
<style type="text/css">
	.st0{fill:#0BBBEF;}
</style>
<g>
	<path class="st0" d="M122.3,54.7c1.7,0.7,2.3,2,2.8,3.7c1.4,6.1,5.6,9.4,11.4,10.8c0.6,0.2,1.3,0.2,1.9,0.4
		c1.5,0.4,2.6,1.5,2.6,3.1c-0.1,6.6-0.2,13.2-0.3,19.8c0,1-0.6,1.5-1.4,1.4c-0.8-0.1-1.2-0.7-1.2-1.7c0.1-6.3,0.2-12.6,0.3-19
		c0-0.7-0.3-1.1-1-1.2c-3.1-0.4-6-1.4-8.6-3.3c-3.5-2.5-5.7-5.8-6.4-10.2c-0.2-0.8-0.5-1.2-1.4-1.2c-14,0-28,0-42,0
		c-0.8,0-1.2,0.3-1.4,1.1c-1.5,7.4-6.3,11.5-13.4,13.3c-0.6,0.2-1.2,0.3-1.8,0.3c-0.6,0.1-0.9,0.5-0.9,1c0.1,6.3,0.2,12.6,0.3,19
		c0,1.1-0.3,1.8-1.1,1.9c-0.8,0.1-1.4-0.5-1.5-1.6c-0.1-2.2-0.3-4.3-0.3-6.4c-0.1-4.1,0-8.3,0-12.4c0-2.5,1.1-3.6,3.5-4
		c4.3-0.6,7.8-2.5,10.3-6c1.1-1.5,1.9-3.1,2.1-4.9c0.3-1.8,1.1-3.1,2.8-3.7C92.7,54.7,107.5,54.7,122.3,54.7z"/>
	<path class="st0" d="M100.1,60.7c5.1,0,10.3,0.1,15.5,0c2.1,0,3.5,0.8,4.5,2.8c2.4,4.9,6.3,8.4,11.3,10.5c2.4,1,3.5,2.6,3.4,5.2
		c-0.2,4-0.1,7.8-0.4,11.8c-0.6,7.5-2.9,14.7-6.6,21.3c-6,10.9-14.8,19-25.7,24.8c-1.4,0.7-2.8,0.8-4.1,0.1
		c-10.8-5.8-19.5-13.7-25.6-24.4c-4.7-8.4-7-17.3-7.1-26.9c0-2.4,0-4.8,0-7.2c0-2.1,0.9-3.5,2.9-4.4c5.4-2.2,9.4-5.8,12-11
		c0.8-1.7,2.2-2.4,4-2.4C89.6,60.7,94.8,60.7,100.1,60.7z M100.1,63.2c-5.3,0-10.4,0-15.7,0c-0.9,0-1.5,0.3-1.9,1.1
		c-2.9,5.8-7.4,9.8-13.3,12.3c-0.9,0.4-1.2,0.9-1.2,1.9c0.1,2.6,0,5.3,0,7.8c0.1,8.7,2.2,16.9,6.5,24.5
		c5.8,10.4,14.2,18.2,24.6,23.9c0.8,0.5,1.4,0.3,2.2-0.1c8.1-4.3,14.9-10,20.3-17.4c5.7-7.6,9.3-16.2,10.2-25.7
		c0.4-4.1,0.3-8.4,0.4-12.5c0.1-1.8-0.1-1.9-1.7-2.6c-5.6-2.4-9.9-6.3-12.7-11.7c-0.5-1-1.2-1.4-2.3-1.4
		C110.4,63.3,105.3,63.2,100.1,63.2z"/>
	<path class="st0" d="M100,145.1c-0.5-0.2-1-0.3-1.5-0.5c-7.7-3.8-15-8.4-21.1-14.7c-8.3-8.4-14-18.2-16.7-29.8
		c-0.1-0.4-0.3-0.9-0.1-1.2c0.3-0.4,0.7-0.8,1.1-0.9c0.7-0.2,1.1,0.4,1.4,1c0.5,1.8,0.9,3.5,1.5,5.3c4.5,13.3,12.7,23.7,24.1,31.6
		c3.4,2.3,7.2,4.2,10.8,6.3c0.4,0.2,0.9,0.2,1.2,0.1c11.2-5.4,20.7-12.8,27.8-23.2c4-5.9,6.9-12.3,8.5-19.3c0.1-0.1,0.1-0.3,0.1-0.4
		c0.3-1,0.9-1.5,1.7-1.3c0.8,0.2,1.1,0.9,0.8,1.9c-1.8,7.4-4.8,14.2-9,20.5c-6.7,9.7-15.4,17.1-25.8,22.5c-1.1,0.6-2.2,1.2-3.4,1.7
		C100.9,144.9,100.5,145,100,145.1z"/>
	<path class="st0" d="M112.7,86.8c0.7,0,1.2,0,1.7,0c2.9,0,4.5,1.7,4.5,4.5c0,3.8,0,7.5,0,11.3c0,2.1,0,4.2,0,6.3
		c0,2.7-1.7,4.4-4.4,4.4c-9.6,0-19.1,0-28.7,0c-2.7,0-4.4-1.7-4.4-4.4c0-5.9,0-11.9,0-17.7c0-2.8,1.7-4.4,4.4-4.4c0.5,0,1.1,0,1.8,0
		c0-0.4,0-0.6,0-1c0.1-2.3-0.1-4.7,0.2-7c0.6-5.9,5.9-10.6,11.7-10.8c6.3-0.2,11.8,4,12.9,10c0.2,1.1,0.3,2.2,0.3,3.3
		C112.7,83.2,112.7,84.9,112.7,86.8z M100.2,110.8c4.7,0,9.4,0,14.1,0c1.6,0,2.1-0.5,2.1-2.1c0-5.8,0-11.6,0-17.3
		c0-1.6-0.5-2.1-2.1-2.1c-9.4,0-18.9,0-28.3,0c-1.5,0-2,0.5-2,2c0,5.8,0,11.6,0,17.4c0,1.5,0.5,2,2,2
		C90.7,110.8,95.4,110.8,100.2,110.8z M110,86.7c0-2.6,0.3-5.1-0.1-7.5c-0.5-4.7-4.5-8.2-9.4-8.5c-4.6-0.3-9,2.8-10,7.3
		c-0.5,2.9-0.4,5.8-0.6,8.8C96.9,86.7,103.4,86.7,110,86.7z"/>
	<path class="st0" d="M98.8,103.4c0-0.3,0-0.5,0-0.8c0.1-0.7-0.1-1.3-0.7-1.8c-1.4-1-1.3-3.1-0.2-4.2c1.2-1.2,3.1-1.2,4.3,0
		c1.1,1.2,1.2,3.2-0.2,4.2c-0.6,0.5-0.8,1.1-0.7,1.8c0.1,0.8,0.1,1.5,0,2.3c-0.1,0.9-0.6,1.5-1.4,1.4c-0.7-0.1-1.2-0.6-1.2-1.4
		C98.8,104.4,98.8,103.9,98.8,103.4z"/>
</g>
</svg>
