<?xml version="1.0" encoding="utf-8"?>
<!-- Generator: Adobe Illustrator 26.1.0, SVG Export Plug-In . SVG Version: 6.00 Build 0)  -->
<svg version="1.1" id="Capa_1" xmlns="http://www.w3.org/2000/svg" xmlns:xlink="http://www.w3.org/1999/xlink" x="0px" y="0px"
	 viewBox="0 0 200 200" style="enable-background:new 0 0 200 200;" xml:space="preserve">
<style type="text/css">
	.st0{fill:#0BBBEF;}
</style>
<path class="st0" d="M100,135.6c-0.9,0-1.9-0.4-2.5-1.1l-29-32.5c-1-1.1-1.1-2.7-0.3-4l9-13.9c0.6-0.9,1.6-1.5,2.8-1.5h39.8
	c1.1,0,2.2,0.6,2.8,1.5l9,13.9c0.8,1.3,0.7,2.9-0.3,4l-29,32.5C101.9,135.2,100.9,135.6,100,135.6z M100,130.3l9-29.1H91L100,130.3z
	 M102.6,129.5l0.8,0.5l25.7-28.8h-17.8L102.6,129.5z M96.6,130l0.8-0.5l-8.8-28.4H70.9L96.6,130z M112.6,98.9h17l-8.5-13.2
	L112.6,98.9z M91.6,98.9h16.9l-8.4-13L91.6,98.9z M70.4,98.9h17l-8.5-13.2L70.4,98.9z M110.5,97.9l8.5-13.2h-17L110.5,97.9z
	 M89.5,97.9L98,84.8H81L89.5,97.9z"/>
<path class="st0" d="M60.1,101.1c-0.6,0-1.1-0.5-1.1-1.1c0-0.6,0.5-1.1,1.1-1.1h3.3c0.6,0,1.2,0.5,1.2,1.1c0,0.6-0.5,1.1-1.2,1.1
	H60.1z"/>
<path class="st0" d="M136.6,101.1c-0.6,0-1.1-0.5-1.1-1.1c0-0.6,0.5-1.1,1.1-1.1h3.3c0.6,0,1.1,0.5,1.1,1.1c0,0.6-0.5,1.1-1.1,1.1
	H136.6z"/>
<path class="st0" d="M122.8,78.4c-0.3,0-0.6-0.1-0.8-0.3c-0.5-0.5-0.5-1.2,0-1.6l5.4-5.4c0.2-0.2,0.5-0.3,0.8-0.3
	c0.3,0,0.6,0.1,0.8,0.3c0.5,0.5,0.5,1.2,0,1.6l-5.4,5.4C123.4,78.2,123.2,78.4,122.8,78.4z"/>
<path class="st0" d="M77.2,78.3c-0.3,0-0.6-0.1-0.8-0.3L71,72.6c-0.2-0.2-0.3-0.5-0.3-0.8c0-0.3,0.1-0.6,0.3-0.8
	c0.2-0.2,0.5-0.3,0.8-0.3c0.3,0,0.6,0.1,0.8,0.3l5.4,5.4c0.2,0.2,0.3,0.5,0.3,0.8c0,0.3-0.1,0.6-0.3,0.8
	C77.8,78.2,77.5,78.3,77.2,78.3z"/>
<path class="st0" d="M100,71.8c-0.6,0-1.1-0.5-1.1-1.2V60.1c0-0.6,0.5-1.1,1.1-1.1c0.6,0,1.1,0.5,1.1,1.1v10.6
	C101.2,71.3,100.6,71.8,100,71.8z"/>
<path class="st0" d="M100,77.3c-0.3,0-0.6-0.1-0.8-0.3c-0.2-0.2-0.3-0.5-0.3-0.8c0-0.3,0.1-0.6,0.3-0.8c0.2-0.2,0.5-0.3,0.8-0.3
	c0.3,0,0.6,0.1,0.8,0.3c0.2,0.2,0.3,0.5,0.3,0.8c0,0.3-0.1,0.6-0.3,0.8C100.6,77.2,100.3,77.3,100,77.3z"/>
</svg>
