<?xml version="1.0" encoding="utf-8"?>
<!-- Generator: Adobe Illustrator 26.1.0, SVG Export Plug-In . SVG Version: 6.00 Build 0)  -->
<svg version="1.1" id="_x33_0" xmlns="http://www.w3.org/2000/svg" xmlns:xlink="http://www.w3.org/1999/xlink" x="0px" y="0px"
	 viewBox="0 0 200 200" style="enable-background:new 0 0 200 200;" xml:space="preserve">
<style type="text/css">
	.st0{fill:#0BBBEF;}
</style>
<g>
	<path class="st0" d="M122.5,121.3c2.2,0,4-1.8,4-4s-1.8-4-4-4s-4,1.8-4,4S120.3,121.3,122.5,121.3z M122.5,116
		c0.7,0,1.3,0.6,1.3,1.3s-0.6,1.3-1.3,1.3c-0.7,0-1.3-0.6-1.3-1.3S121.8,116,122.5,116z"/>
	<path class="st0" d="M135.9,111.7c-0.4-0.9-0.2-2.1,0.6-2.8l1.9-1.9l-5.6-5.6l-1.9,1.9c-0.7,0.7-1.8,0.9-2.8,0.5
		c-0.9-0.4-1.6-1.3-1.6-2.3v-2.7h-2.7c-0.1-2.2-0.5-4.2-1.2-6.1l15.3-15.3c2-2,3.1-4.7,3.1-7.5c0-5.9-4.8-10.7-10.7-10.7
		c-2.9,0-5.6,1.1-7.5,3.1l-15.3,15.3c-2-0.7-4.1-1.1-6.2-1.2c-1.8-3.2-5.2-5.3-9.2-5.3c-1,0-2,0.2-2.9,0.4
		c-2.2-4.3-6.7-7.1-11.7-7.1c-7.3,0-13.3,5.9-13.3,13.3c0,1,0.1,2,0.3,3c-3.2,1-5.6,4.1-5.6,7.6c0,4.4,3.6,8,8,8h9.6
		c-0.2,1.3-0.3,2.7-0.3,4c0,2.9,0.6,5.3,1.4,7.3l-11.8,11.8l-6.6,17.1c-0.2,0.4-0.2,0.8-0.2,1.3c0,2,1.6,3.6,3.6,3.6
		c0.4,0,0.8-0.1,1.3-0.2l17.1-6.6l8.6-8.6c-0.1,0.3-0.1,0.6-0.1,0.9c0,1,0.4,1.9,1,2.7c-0.7,0.7-1,1.6-1,2.7c0,1.8,1.3,3.4,3,3.8
		c1.1,3.2,4.1,5.4,7.6,5.4c3.5,0,6.5-2.2,7.6-5.4c1.7-0.4,3-2,3-3.8c0-0.1,0-0.2,0-0.3l1.6,1.6l1.9-1.9c0.7-0.7,1.8-0.9,2.8-0.5
		c0.9,0.4,1.6,1.3,1.6,2.3v2.7h8v-2.7c0-1,0.6-2,1.6-2.3c0.9-0.4,2.1-0.2,2.8,0.6l1.9,1.9l5.6-5.6l-1.9-1.9
		c-0.7-0.7-0.9-1.8-0.5-2.8c0.4-0.9,1.3-1.6,2.3-1.6h2.7v-8h-2.7C137.3,113.4,136.4,112.7,135.9,111.7L135.9,111.7z M116.1,115.6
		c1.5-1.4,2.9-2.9,4.1-4.5c0.7-0.2,1.5-0.4,2.2-0.4c3.7,0,6.6,3,6.6,6.6s-3,6.6-6.6,6.6s-6.6-3-6.6-6.6
		C115.9,116.7,116,116.2,116.1,115.6L116.1,115.6z M117.7,84.3l6.1-6.1l4.7,4.7l-7.1,7.1C120.5,87.9,119.2,86,117.7,84.3z
		 M119.1,69.7l2.1-2.1l11.4,11.4l-2.1,2.1L119.1,69.7z M130.4,61.8c4.4,0,8.1,3.6,8.1,8.1c0,2.2-0.8,4.1-2.3,5.7l-1.6,1.6
		l-11.4-11.4l1.6-1.6C126.2,62.6,128.2,61.8,130.4,61.8L130.4,61.8z M117.3,71.6l4.7,4.7l-6.1,6.1c-1.7-1.5-3.7-2.8-5.7-3.8
		L117.3,71.6z M121.1,100.1c0,6.9-3.5,10.3-7.1,13.9c-2.5,2.5-5.1,5-6.6,8.7c-0.2,0-0.5-0.1-0.7-0.1h-5.3V116c0-2.2-1.8-4-4-4h-2.7
		c-0.7,0-1.3-0.6-1.3-1.3c0-0.7,0.6-1.3,1.3-1.3H108c2.2,0,4-1.8,4-4s-1.8-4-4-4H97.4c-0.7,0-1.3-0.6-1.3-1.3v-4h6.6
		c3.7,0,6.6-3,6.6-6.6s-3-6.6-6.6-6.6c0,0-0.1,0-0.1,0c0-0.4,0.1-0.9,0.1-1.3c0-0.8-0.1-1.7-0.3-2.5
		C112.9,80.3,121.1,89.3,121.1,100.1L121.1,100.1z M92.1,126.6c0-0.7,0.6-1.3,1.3-1.3h13.3c0.7,0,1.3,0.6,1.3,1.3
		c0,0.7-0.6,1.3-1.3,1.3H93.4C92.7,127.9,92.1,127.3,92.1,126.6z M75.4,126.6l9.7-9.7c1.6,1.6,3.1,3.2,4.3,5.2l-9.3,9.2L75.4,126.6z
		 M61.7,88.2c0-2.9,2.4-5.3,5.3-5.3c2.9,0,5.3,2.4,5.3,5.3h2.7c0-4.3-3.4-7.7-7.6-7.9c-0.2-0.8-0.3-1.7-0.3-2.7
		C67,71.7,71.7,67,77.6,67c3.9,0,7.4,2.1,9.2,5.4c-2.9,1.7-4.8,4.6-5.2,8c-2.3,0.6-4,2.7-4,5.1h2.7c0-1.5,1.2-2.7,2.7-2.7
		s2.7,1.2,2.7,2.7h2.7c0-2.4-1.7-4.4-3.9-5.1c0.6-3.8,3.8-6.8,7.9-6.8c4.4,0,8,3.6,8,8c0,0.7-0.1,1.4-0.3,2.1
		c-2.2,1.1-3.7,3.3-3.7,5.9h2.7c0-2.2,1.8-4,4-4s4,1.8,4,4s-1.8,4-4,4H67C64,93.5,61.7,91.1,61.7,88.2z M93.4,96.1v4
		c0,2.2,1.8,4,4,4H108c0.7,0,1.3,0.6,1.3,1.3c0,0.7-0.6,1.3-1.3,1.3H94.7c-2.2,0-4,1.8-4,4s1.8,4,4,4h2.7c0.7,0,1.3,0.6,1.3,1.3v6.6
		h-5.3c-0.2,0-0.5,0-0.7,0.1c-1.5-3.7-4.1-6.3-6.6-8.7c-3.7-3.6-7.1-7-7.1-13.9c0-1.3,0.2-2.7,0.4-4H93.4L93.4,96.1z M83.3,115
		l-9.7,9.7l-4.7-4.7l10.1-10.1C80.2,111.8,81.7,113.5,83.3,115L83.3,115z M67.5,122.3l10.3,10.3l-8.8,3.4l-5-5L67.5,122.3z
		 M62.9,138.4c-0.6,0.2-1.2-0.2-1.2-0.8c0-0.1,0-0.2,0-0.3l1.3-3.5l3.3,3.3L62.9,138.4z M100,138.5c-2,0-3.7-1-4.6-2.7h9.3
		C103.7,137.4,102,138.5,100,138.5L100,138.5z M106.6,133.2H93.4c-0.7,0-1.3-0.6-1.3-1.3c0-0.7,0.6-1.3,1.3-1.3h13.3
		c0.7,0,1.3,0.6,1.3,1.3S107.4,133.2,106.6,133.2z M138.4,118.7L138.4,118.7c-2.2,0-4.1,1.2-4.9,3.2c-0.8,2-0.4,4.2,1.1,5.7l0,0
		l-1.9,1.9l0,0c-1.5-1.5-3.7-1.9-5.7-1.1c-1.9,0.8-3.2,2.7-3.2,4.8v0.1h-2.7v-0.1c0-2.1-1.2-4-3.2-4.8c-2-0.8-4.2-0.4-5.7,1.1l0,0
		l-1.8-1.8c0.1-0.3,0.2-0.7,0.2-1.1c0-0.9-0.3-1.8-0.9-2.5c0.8-2.2,2.1-4,3.7-5.6c0.6,4.6,4.5,8.1,9.2,8.1c5.1,0,9.3-4.1,9.3-9.3
		s-4.3-9.2-9.4-9.2c-0.1,0-0.2,0-0.4,0c0.9-1.9,1.5-4,1.7-6.6h0v0.1c0,2.1,1.2,4,3.2,4.8c2,0.8,4.2,0.4,5.7-1.1l0,0l1.9,1.9l0,0
		c-1.5,1.5-1.9,3.7-1.1,5.7c0.8,2,2.7,3.2,4.8,3.2h0.1L138.4,118.7L138.4,118.7z"/>
</g>
</svg>
