<?xml version="1.0" encoding="utf-8"?>
<!-- Generator: Adobe Illustrator 26.1.0, SVG Export Plug-In . SVG Version: 6.00 Build 0)  -->
<svg version="1.1" id="Capa_1" xmlns="http://www.w3.org/2000/svg" xmlns:xlink="http://www.w3.org/1999/xlink" x="0px" y="0px"
	 viewBox="0 0 512 512" style="enable-background:new 0 0 512 512;" xml:space="preserve">
<style type="text/css">
	.st0{fill:#E153C8;}
</style>
<path class="st0" d="M256,328.8c-7.1,0-12.9-5.8-12.9-12.9v-108c0-7.1,5.8-12.9,12.9-12.9c7.1,0,12.9,5.8,12.9,12.9v108
	C268.9,323,263.1,328.8,256,328.8z"/>
<path class="st0" d="M256,151.8c-7.1,0-12.9-5.8-12.9-12.9S248.9,126,256,126s12.9,5.8,12.9,12.9S263.1,151.8,256,151.8z"/>
<path class="st0" d="M255.8,488.2c-10.4,0-20-4.6-26.4-12.8l-49.9-63.3L92.4,412C55.8,412,26,382.2,26,345.6V103
	c0-36.6,29.8-66.4,66.4-66.4h327.1c36.6,0,66.4,29.8,66.4,66.4v241.5v0.6v0.6c0,36.5-29.8,66.4-66.4,66.4h-87.7l-49.4,63.2
	c-6.4,8.3-16,13-26.4,13H255.8z M92.4,58C67.6,58,47.4,78.2,47.4,103v242.5c0,24.8,20.3,45.1,45.1,45.1l92.3,0.1
	c3.3,0,6.3,1.5,8.4,4.1l53.2,67.4c2.3,3,5.8,4.6,9.6,4.6c3.8,0,7.2-1.7,9.6-4.7l52.8-67.4c2-2.6,5.1-4.1,8.4-4.1h92.9
	c24.8,0,45.1-20.3,45.1-45.1V345v-0.6V103c0-24.8-20.3-45.1-45.1-45.1H92.4z"/>
</svg>
