<?xml version="1.0" encoding="utf-8"?>
<!-- Generator: Adobe Illustrator 26.1.0, SVG Export Plug-In . SVG Version: 6.00 Build 0)  -->
<svg version="1.1" id="Icons" xmlns="http://www.w3.org/2000/svg" xmlns:xlink="http://www.w3.org/1999/xlink" x="0px" y="0px"
	 viewBox="0 0 512 512" style="enable-background:new 0 0 512 512;" xml:space="preserve">
<style type="text/css">
	.st0{fill:#E153C8;}
</style>
<g>
	<path class="st0" d="M459.2,249.7c-3.4,0-6.4-2.5-6.8-6c-0.8-6-2.1-12.5-3.8-19.8c-0.8-3.7,1.5-7.4,5.2-8.3
		c3.7-0.8,7.3,1.4,8.2,5.1c1.8,7.7,3.2,14.6,4.1,21c0.5,3.8-2.1,7.3-5.9,7.8C459.9,249.7,459.5,249.7,459.2,249.7z"/>
	<path class="st0" d="M395.9,126.3c-1.8,0-3.5-0.7-4.8-2c-12.5-12.3-26.6-22.9-41.8-31.6c-3.3-1.9-4.4-6.1-2.5-9.5
		c1.9-3.3,6.1-4.4,9.5-2.5c16.2,9.3,31.2,20.6,44.6,33.7c2.7,2.7,2.8,7.1,0.1,9.8C399.6,125.5,397.8,126.3,395.9,126.3L395.9,126.3z
		"/>
	<path class="st0" d="M438.4,183.9c-2.6,0-5-1.5-6.2-3.8c-2.9-5.6-6.1-11.2-9.8-17.2c-2-3.2-1-7.5,2.2-9.6c3.2-2,7.5-1,9.6,2.2
		c3.9,6.3,7.3,12.3,10.4,18.2c1.7,3.4,0.4,7.6-3,9.3C440.6,183.6,439.5,183.9,438.4,183.9L438.4,183.9z"/>
	<path class="st0" d="M432.6,389.8c-1.2,0-2.4-0.3-3.5-0.9c-3.3-1.9-4.4-6.2-2.5-9.5c15.4-26.4,24.7-55.9,27.2-86.4
		c0.3-3.8,3.7-6.6,7.5-6.3c3.8,0.3,6.6,3.7,6.3,7.5c-2.7,32.5-12.6,64-29.1,92.1C437.3,388.5,435,389.8,432.6,389.8L432.6,389.8z"/>
	<path class="st0" d="M245,498.1C165.2,498,91.5,455.4,51.4,386.4c-2-3.2-1-7.5,2.2-9.5c3.2-2,7.5-1,9.5,2.2
		c0.1,0.1,0.1,0.2,0.2,0.4C101,444.2,170.1,484.1,245,484.3c43.1,0.1,85.2-13.2,120.4-38.1c3.1-2.2,7.4-1.4,9.6,1.7
		c2.2,3.1,1.4,7.4-1.7,9.6l0,0C335.8,484,291,498.2,245,498.1L245,498.1z"/>
	<path class="st0" d="M28.9,296.5c-3.6,0-6.7-2.8-6.9-6.4c-0.4-5.1-0.5-10.3-0.5-15.4C21.6,151.2,121.6,51.3,245,51.1
		c3.8,0,6.9,3.1,6.9,6.9S248.8,65,245,65C129.3,65.1,35.5,158.9,35.3,274.6c0,4.8,0.2,9.7,0.5,14.5c0.3,3.8-2.6,7.1-6.4,7.4
		L28.9,296.5z"/>
	<path class="st0" d="M207.7,102.3c-3.8,0-6.9-3.1-6.9-6.9c0-1.8,0.7-3.6,2-4.9l32.5-32.4l-32.4-32.4c-2.7-2.7-2.6-7.1,0.2-9.8
		c2.7-2.6,6.9-2.6,9.6,0l37.4,37.4c2.7,2.7,2.7,7.1,0,9.8l-37.4,37.4C211.3,101.6,209.5,102.3,207.7,102.3L207.7,102.3z"/>
	<path class="st0" d="M43.8,440.8c-0.6,0-1.2-0.1-1.8-0.2c-3.7-1-5.9-4.8-4.9-8.5c0,0,0,0,0,0l13.7-51c1-3.7,4.8-5.9,8.5-4.9
		c0,0,0,0,0,0l51,13.7c3.7,1,5.9,4.8,4.9,8.5c-1,3.7-4.8,5.9-8.5,4.9l-44.3-11.9l-11.9,44.3C49.7,438.7,46.9,440.8,43.8,440.8
		L43.8,440.8z"/>
	<path class="st0" d="M432.6,389.8c-3.1,0-5.9-2.1-6.7-5.1l-13.7-51c-1.1-3.7,1-7.5,4.7-8.6s7.5,1,8.6,4.7c0,0.1,0.1,0.2,0.1,0.4
		l11.9,44.3l44.3-11.9c3.7-1,7.5,1.2,8.5,4.9c1,3.7-1.2,7.5-4.9,8.5l0,0l-51,13.7C433.8,389.7,433.2,389.8,432.6,389.8L432.6,389.8z
		"/>
	<path class="st0" d="M255.7,403h-27.1c-5.2,0-9.7-3.8-10.5-9l-2.3-14.5c-11.5-2.7-22.5-7.3-32.5-13.5l-11.9,8.6
		c-4.2,3.1-10.1,2.7-13.8-1l-19.2-19.2c-3.7-3.7-4.2-9.5-1.1-13.7l8.6-11.9c-6.2-10.1-10.7-21-13.5-32.5l-14.5-2.3
		c-5.2-0.8-9-5.3-9-10.5v-27.2c0-5.2,3.8-9.7,9-10.5l14.5-2.3c2.7-11.5,7.3-22.5,13.5-32.5l-8.6-11.9c-3.1-4.2-2.6-10.1,1.1-13.8
		l19.2-19.2c3.7-3.7,9.5-4.2,13.7-1.1l11.9,8.6c10.1-6.2,21-10.7,32.5-13.5l2.3-14.5c0.8-5.2,5.3-9,10.5-9h27.1
		c5.2,0,9.7,3.8,10.5,9l2.3,14.5c11.5,2.7,22.5,7.3,32.5,13.5l11.9-8.6c4.2-3.1,10.1-2.6,13.8,1.1l19.2,19.2
		c3.7,3.7,4.2,9.5,1.1,13.7l-8.6,11.9c6.2,10.1,10.7,21,13.5,32.5l14.5,2.3c5.2,0.8,9,5.3,9,10.5v27.1c0,5.2-3.8,9.7-9,10.5
		l-14.5,2.3c-2.7,11.5-7.3,22.5-13.5,32.5l8.6,11.9c3.1,4.2,2.6,10.1-1.1,13.8l-19.2,19.2c-3.7,3.7-9.5,4.2-13.7,1.1l-11.9-8.6
		c-10.1,6.2-21,10.7-32.5,13.5l-2.3,14.5C265.5,399.2,261,403,255.7,403L255.7,403z M231.3,389.1H253l2.6-16.5
		c0.5-2.9,2.7-5.2,5.5-5.7c13-2.5,25.3-7.6,36.3-15c2.4-1.6,5.6-1.6,7.9,0.1l13.6,9.8l15.3-15.3l-9.8-13.6c-1.7-2.4-1.8-5.5-0.1-7.9
		c7.4-10.9,12.5-23.3,15-36.3c0.5-2.9,2.8-5.1,5.7-5.5l16.5-2.6v-21.7l-16.5-2.6c-2.9-0.5-5.2-2.7-5.7-5.5c-2.5-13-7.6-25.3-15-36.3
		c-1.6-2.4-1.6-5.6,0.1-7.9l9.8-13.5l-15.3-15.3l-13.6,9.8c-2.4,1.7-5.5,1.8-7.9,0.1c-10.9-7.4-23.3-12.5-36.3-15
		c-2.9-0.5-5.1-2.8-5.5-5.7l-2.6-16.5h-21.7l-2.6,16.5c-0.5,2.9-2.7,5.2-5.5,5.7c-13,2.5-25.3,7.6-36.3,15c-2.4,1.6-5.6,1.6-7.9-0.1
		l-13.5-9.8L150.1,193l9.8,13.6c1.7,2.4,1.8,5.5,0.1,7.9c-7.4,10.9-12.5,23.3-15,36.3c-0.5,2.9-2.8,5.1-5.7,5.5l-16.5,2.6v21.7
		l16.5,2.6c2.9,0.5,5.2,2.7,5.7,5.5c2.5,13,7.6,25.3,15,36.3c1.6,2.4,1.6,5.6-0.1,7.9l-9.8,13.5l15.3,15.3L179,352
		c2.4-1.7,5.5-1.8,7.9-0.1c10.9,7.4,23.3,12.5,36.3,15c2.9,0.5,5.1,2.8,5.5,5.7L231.3,389.1z"/>
	<path class="st0" d="M242.2,344.2c-41.1,0-74.4-33.3-74.4-74.4s33.3-74.4,74.4-74.4s74.4,33.3,74.4,74.4
		C316.5,310.8,283.2,344.1,242.2,344.2z M242.2,209.2c-33.4,0-60.5,27.1-60.5,60.5s27.1,60.5,60.5,60.5s60.5-27.1,60.5-60.5l0,0
		C302.7,236.4,275.6,209.3,242.2,209.2z"/>
</g>
</svg>
