<?xml version="1.0" encoding="utf-8"?>
<!-- Generator: Adobe Illustrator 26.1.0, SVG Export Plug-In . SVG Version: 6.00 Build 0)  -->
<svg version="1.1" id="Layer_1" xmlns="http://www.w3.org/2000/svg" xmlns:xlink="http://www.w3.org/1999/xlink" x="0px" y="0px"
	 viewBox="0 0 512 512" style="enable-background:new 0 0 512 512;" xml:space="preserve">
<style type="text/css">
	.st0{fill:#E153C8;}
</style>
<g>
	<path class="st0" d="M504.5,472.5H470V349.8v-18V225.1c0-9.7-7.9-17.5-17.5-17.5H399c-9.7,0-17.5,7.9-17.5,17.5v247.4H357V279.8
		c0-9.7-7.9-17.5-17.5-17.5H286c-9.7,0-17.5,7.9-17.5,17.5v192.7H244v-138c0-9.7-7.9-17.5-17.5-17.5H173c-9.7,0-17.5,7.9-17.5,17.5
		v58.1v7.7v72.3H131v-83.3c0-9.7-7.9-17.5-17.5-17.5H59.6c-9.7,0-17.5,7.9-17.5,17.5v83.3H7.5c-4.2,0-7.5,3.4-7.5,7.5
		c0,4.2,3.4,7.5,7.5,7.5h497c4.2,0,7.5-3.4,7.5-7.5C512,475.8,508.6,472.5,504.5,472.5z M115.6,472.5H57.1v-83.3
		c0-1.4,1.1-2.5,2.5-2.5h53.5c1.4,0,2.5,1.1,2.5,2.5V472.5z M228.7,472.5h-58.5v-72.3v-7.7v-58.1c0-1.4,1.1-2.5,2.5-2.5h53.5
		c1.4,0,2.5,1.1,2.5,2.5V472.5z M341.8,472.5h-58.5V279.8c0-1.4,1.1-2.5,2.5-2.5h53.5c1.4,0,2.5,1.1,2.5,2.5V472.5z M454.9,331.8v18
		v122.7h-58.5V225.1c0-1.4,1.1-2.5,2.5-2.5h53.5c1.4,0,2.5,1.1,2.5,2.5V331.8z"/>
	<path class="st0" d="M80.2,281.9c0.4,0,0.8,0,1.2,0c55.4-3.8,107.5-15.9,154.9-35.9c63.8-26.9,116.6-67.5,157-120.7l25.3,17.6
		c5,3.7,12.6-0.8,11.8-6.9L420,31.3c-0.3-4.5-5.1-7.8-9.4-6.5L308.9,51.3c-6.1,1.4-7.6,10.1-2.4,13.4L332,82.5
		c-5.1,8-16.3,23.8-35.8,43.2c0,0-18.6,17.5-32,28.3c-50.2,39.8-113.7,71.7-188.9,94.9c-8.3,2.6-13.2,10.7-11.6,19.3
		C65.2,276.3,72.1,281.9,80.2,281.9z M79.8,263.2c77.7-24,143.2-57.1,195.1-98.6l0,0c1.8-1.4,4.3-3.4,7-5.7c0.1,0,0.1-0.1,0.2-0.1
		c0.7-0.6,1.4-1.1,2-1.7c0.2-0.2,0.5-0.4,0.7-0.6c10-8.8,22-20.1,22-20.1c30.1-29.9,41.5-51.7,42-52.6c1.7-3.3,0.7-7.5-2.4-9.6
		l-17.9-12.4L406,41.6l8,79.6l-18-12.5c-3.4-2.3-7.9-1.6-10.4,1.7c-39.4,53.9-91.6,94.8-155.1,121.7
		c-57.1,24.1-113.1,32.2-150.1,34.8C78.3,267.4,77.6,263.5,79.8,263.2z"/>
</g>
</svg>
