<?xml version="1.0" encoding="UTF-8"?>
<svg id="Capa_1" data-name="Capa 1" xmlns="http://www.w3.org/2000/svg" width="54.86" height="56" viewBox="0 0 54.86 56">
  <defs>
    <style>
      .cls-1 {
        fill: #0bbbef;
      }
    </style>
  </defs>
  <path class="cls-1" d="M1.6,48.3V25c.04-.09,.08-.18,.11-.28,.4-1.17,1.29-1.83,2.53-1.85,.25,0,.49,0,.79,0v-.65c0-4.02,0-8.03,0-12.05,0-2.66,1.85-4.53,4.49-4.53,11.93-.01,23.86-.01,35.8,.01,.68,0,1.42,.16,2.04,.45,1.71,.81,2.45,2.27,2.45,4.12,0,5.73,0,11.46,0,17.19v.61c.34,0,.61-.01,.88,0,1.38,.07,2.16,.86,2.56,2.11v18.16c-.51,1.61-1.65,2.18-3.28,2.13-1.93-.06-3.86-.01-5.8-.01-1.96,0-2.97-1.01-2.98-2.99,0-2.24,0-4.47,0-6.71v-.61h-10.31v5.13c.2,0,.38,0,.56,0,.82,.01,1.65-.02,2.47,.04,1.9,.13,3.63,1.85,3.79,3.73,.1,1.11-.16,1.4-1.27,1.4H14.8c-3.46,0-6.92,0-10.39,0-.95,0-1.76-.29-2.32-1.09-.22-.3-.34-.68-.5-1.02ZM48.09,28.02v-.52c0-5.75,0-11.5,0-17.25,0-1.85-1.06-2.91-2.92-2.91-11.83,0-23.67,0-35.5,0-1.85,0-2.91,1.06-2.91,2.91,0,4.02,0,8.04,0,12.06,0,.18,.02,.35,.02,.55h.67c3.95,0,7.9,0,11.85,0,.35,0,.71,.01,1.04,.11,.31,.09,.48,.02,.69-.2,2.66-2.67,5.32-5.33,7.99-7.99,.15-.15,.31-.31,.5-.41,.34-.19,.69-.14,.97,.13,.3,.29,.36,.65,.15,1.01-.11,.18-.27,.34-.42,.5-2.58,2.58-5.15,5.17-7.74,7.74-.33,.33-.59,.59-.32,1.1,.13,.26,.1,.62,.11,.94,0,1.7,0,3.4,0,5.09v.55h18.93c0-.18,0-.35,0-.51,.02-1.91,1.03-2.91,2.95-2.91,1.29,0,2.59,0,3.95,0ZM3.32,45.21H20.54V25.85c0-1.02-.26-1.27-1.29-1.27H4.63c-1.07,0-1.31,.24-1.31,1.29v18.76c0,.18,0,.36,0,.57Zm48.19,.02c.01-.14,.02-.22,.02-.31,0-4.7,0-9.41,0-14.11,0-.75-.33-1.07-1.09-1.07-2.1,0-4.2,0-6.3,0-.95,0-1.21,.27-1.21,1.24,0,4.57,0,9.14,0,13.71,0,.18,.02,.35,.03,.54,2.87,0,5.69,0,8.55,0Zm-10.34-12.01H22.3v5.1h18.86v-5.1Zm-20.64,13.79H3.35c-.14,1.4,.12,1.69,1.48,1.69h14.36c.17,0,.34,0,.5-.01,.47-.06,.77-.32,.83-.81,.03-.28,0-.56,0-.87Zm15.28,1.66c0-.07,0-.13-.01-.17-.02-.06-.05-.13-.08-.18-.53-.91-1.32-1.35-2.37-1.35-3.56,0-7.12,0-10.68,0-.13,0-.25,.03-.37,.04-.04,.57-.09,1.1-.13,1.66h13.63Zm-6.7-3.45v-5.11h-3.36v5.11h3.36Zm22.43,1.78h-8.6c0,.24,0,.46,0,.67,.02,.7,.33,1.02,1.03,1.02,2.18,0,4.37,.01,6.55,0,.69,0,1-.34,1.02-1.04,0-.2,0-.4,0-.65Zm-29.25-1.78h1.67v-5.11h-1.67v5.11Z"/>
  <path class="cls-1" d="M36,15.28c-.07,.11-.16,.37-.34,.55-2.77,2.79-5.55,5.57-8.34,8.34-.43,.43-.94,.43-1.29,.07-.35-.36-.32-.87,.1-1.3,1.13-1.15,2.28-2.28,3.42-3.42,1.58-1.58,3.16-3.16,4.74-4.74,.14-.14,.29-.29,.46-.38,.57-.32,1.26,.09,1.25,.89Z"/>
  <path class="cls-1" d="M27.38,10.79c-.54,0-1.07,.01-1.61,0-.55-.02-.89-.33-.92-.8-.03-.49,.31-.89,.87-.9,1.12-.03,2.24-.03,3.37,0,.57,.01,.91,.39,.89,.88-.02,.49-.37,.81-.95,.82-.55,.01-1.1,0-1.66,0Z"/>
  <path class="cls-1" d="M17.39,33.9c-.18,.31-.28,.57-.46,.75-1.14,1.16-2.29,2.31-3.45,3.46-.43,.43-.93,.46-1.3,.12-.39-.37-.37-.87,.08-1.33,1.14-1.16,2.3-2.31,3.45-3.46,.3-.29,.67-.46,1.04-.24,.24,.14,.4,.44,.62,.7Z"/>
  <path class="cls-1" d="M11.86,33.94c.14,.42-.05,.69-.33,.98-1.03,1.01-2.04,2.04-3.06,3.05-.14,.14-.29,.29-.46,.38-.37,.19-.73,.13-1.01-.17-.26-.29-.32-.63-.12-.97,.09-.16,.22-.29,.35-.42,1.08-1.08,2.16-2.16,3.24-3.24,.02-.02,.05-.05,.07-.07,.29-.29,.64-.53,1.02-.3,.21,.13,.3,.47,.44,.71-.04,.02-.09,.04-.13,.06Z"/>
  <path class="cls-1" d="M45.92,39.66c-.24-.2-.59-.35-.67-.6-.09-.27-.03-.7,.15-.91,.44-.55,.97-1.02,1.47-1.52,.31-.31,.61-.63,.93-.92,.4-.36,.89-.36,1.22-.02,.33,.33,.36,.84-.01,1.22-.78,.81-1.58,1.61-2.39,2.39-.16,.15-.4,.21-.7,.37Z"/>
  <path class="cls-1" d="M28.29,35.78c0,.47-.4,.85-.88,.84-.47-.01-.82-.37-.81-.84,0-.48,.4-.87,.87-.85,.45,.02,.83,.41,.83,.86Z"/>
</svg>