<?xml version="1.0" encoding="utf-8"?>
<!-- Generator: Adobe Illustrator 26.1.0, SVG Export Plug-In . SVG Version: 6.00 Build 0)  -->
<svg version="1.1" id="Capa_1" xmlns="http://www.w3.org/2000/svg" xmlns:xlink="http://www.w3.org/1999/xlink" x="0px" y="0px"
	 viewBox="0 0 438.9 438.9" style="enable-background:new 0 0 438.9 438.9;" xml:space="preserve">
<style type="text/css">
	.st0{fill:#E153C8;}
</style>
<g>
	<path class="st0" d="M107.4,262.3l20.8,21.3c1.3,1.4,3.3,2.3,5.2,2.3l0.3,0.1h0.2c2.2,0,4.1-0.8,5.7-2.4l39.6-37.6
		c1.4-1.3,2.3-3.3,2.4-5.3c0.1-2.1-0.6-4-2-5.6l-0.6-0.6c-1.5-1.6-3.6-2.5-5.9-2.5c-2.1,0-4.1,0.8-5.5,2.1l-33.8,32.2l-15-15.6
		c-1.5-1.6-3.6-2.5-5.9-2.5c-1.9,0-3.8,0.7-5.4,2.1l0,0l0,0C104.2,253.8,104.2,259,107.4,262.3z"/>
	<path class="st0" d="M209.3,273.3h116.5c4.5,0,8.1-3.7,8.1-8.1s-3.7-8.1-8.1-8.1H209.3c-4.5,0-8.1,3.7-8.1,8.1
		S204.8,273.3,209.3,273.3z"/>
	<path class="st0" d="M128.2,202.6c1.3,1.4,3.3,2.3,5.2,2.3l0.3,0.1h0.2c2.2,0,4.1-0.8,5.7-2.4l39.6-37.6c1.4-1.3,2.3-3.3,2.4-5.3
		c0.1-2.1-0.6-4-2-5.6l-0.6-0.6c-1.5-1.6-3.6-2.5-5.9-2.5c-2.1,0-4.1,0.8-5.5,2.1l-33.8,32.2l-15-15.6c-1.5-1.6-3.6-2.5-5.9-2.5
		c-1.9,0-3.8,0.7-5.4,2.1l-0.1,0.1c-3.2,3.4-3.2,8.6,0,11.9L128.2,202.6z"/>
	<path class="st0" d="M209.3,192.3h116.5c4.5,0,8.1-3.7,8.1-8.1c0-4.5-3.7-8.1-8.1-8.1H209.3c-4.5,0-8.1,3.7-8.1,8.1
		S204.8,192.3,209.3,192.3z"/>
	<path class="st0" d="M179,315.6c-1.5-1.6-3.6-2.5-5.9-2.5c-2.1,0-4.1,0.8-5.5,2.1l-33.8,32.2l-15-15.6c-1.5-1.6-3.6-2.5-5.9-2.5
		c-1.9,0-3.8,0.7-5.4,2.1l-0.1,0.1c-3.2,3.4-3.2,8.6,0,11.9l20.8,21.3c1.3,1.4,3.3,2.3,5.2,2.3l0.3,0.1h0.2c2.2,0,4.1-0.8,5.7-2.4
		l39.6-37.6c1.5-1.4,2.3-3.2,2.4-5.3c0.1-2.1-0.6-4-2-5.6L179,315.6z"/>
	<path class="st0" d="M209.3,354.3h116.5c4.5,0,8.1-3.7,8.1-8.1s-3.7-8.1-8.1-8.1H209.3c-4.5,0-8.1,3.7-8.1,8.1
		S204.8,354.3,209.3,354.3z"/>
	<path class="st0" d="M383.8,186.4v-84.9c0.2-20.5-16.5-37.2-37-37.2h-43.2V45.4c0-4.3-5-6.2-9.7-6.2h-31.3l-0.5-1.3
		c-6.5-18.2-22.6-29-43.2-29h-1.7c-18.5,0-35.2,11.7-41.5,29l-0.5,1.3h-30.7c-3.4,0-9.2,1.3-9.2,6.2v18.9H92.1
		c-20.5,0-37.2,16.7-37.2,37.2v175.9v7.6v107.8c0,20.5,16.7,37.2,37.2,37.2h254.7c20.5,0,37.2-16.7,37.2-37.2L383.8,186.4z
		 M151.6,73.7c0.1-0.4,0.1-0.8,0.1-1.2c0-0.4-0.1-0.7-0.1-1.2V55.6h29.6h0.1c4-0.5,7.1-3.6,7.8-7.5V48c3.2-13.9,15.4-23.8,29.6-24.2
		h0.2c14.2,0.5,26.2,10.5,29.2,24.4c0.8,4.1,4.2,7.1,8.3,7.5h30.7v44.4H151.6V73.7z M346.8,413.5H92c-11.4,0-20.7-9.3-20.7-20.7V285
		v-7.6V101.5c0-11.4,9.3-20.7,20.7-20.7h43.2v27.9c0.4,4.4,4.1,7.8,8.6,7.8h150.6c4.5,0,8.4-3.4,9.1-7.8v-0.1V80.8h43.2
		c11.4,0,20.7,9.3,20.7,20.7v109.9c0,0.4,0,0.8,0.1,1.2v180.2C367.5,404.2,358.2,413.5,346.8,413.5z"/>
</g>
</svg>
