<?xml version="1.0" encoding="UTF-8"?>
<svg id="Capa_1" data-name="Capa 1" xmlns="http://www.w3.org/2000/svg" width="56" height="56" viewBox="0 0 56 56">
  <defs>
    <style>
      .cls-1 {
        fill: #0bbbef;
      }
    </style>
  </defs>
  <path class="cls-1" d="M51.6,5.7V15.4c-.3,.8-.9,1.4-1.9,1.4h-8.8c-1.1,0-1.8-.8-1.8-1.8v-3.6h-7.6v8.4h2.5c1.2,0,2.1,.9,2.1,2.1v2.5h2.9c.3,0,.4-.1,.6-.3,.5-.9,1.5-1.3,2.5-1,.9,.3,1.5,1.1,1.4,2.1,0,.9-.7,1.7-1.5,1.9-.9,.2-1.8-.1-2.3-.9-.1-.1-.2-.3-.3-.3h-3.1v2.3h8.8c.8,0,1,.2,1,1v10.2h3.2c1.1-.1,1.9,.3,2.3,1.4v9.7c-.3,.7-.7,1.1-1.4,1.4h-9.7c-.7-.3-1.3-.8-1.4-1.6-.1-1.5,0-2.9,0-4.4,0-.4,.3-.6,.7-.6s.7,.3,.7,.6v4c0,.4,.1,.6,.6,.6h8.6c.4,0,.6-.2,.6-.6v-8.6c0-.4-.2-.6-.6-.6h-8.6c-.4,0-.6,.2-.5,.6v1.6c0,.5-.3,.8-.7,.8s-.7-.3-.7-.8v-1.4c0-1.4,.7-2.1,2.1-2.1h3.4v-9.8h-8.4v4.5c0,1.4-.9,2.3-2.3,2.3h-2.4v2.5c0,.4,.1,.6,.4,.8,.8,.4,1.1,1.4,.9,2.3-.2,.9-1,1.5-1.9,1.5s-1.7-.5-2-1.4c-.3-.8-.1-1.9,.7-2.3,.5-.3,.6-.7,.5-1.2v-2.2h-3.8v8.5c0,.9-.2,1.1-1.1,1.1h-8.5v3.4c.1,1.1-.3,1.9-1.4,2.3H5.7c-.7-.3-1.1-.7-1.4-1.4v-9.7c.3-.8,.8-1.4,1.8-1.4H15.1c1,0,1.7,.8,1.7,1.8v3.5h8.1v-8.2h-3.3c-1-.1-1.8-.9-1.9-1.9-.1-.7,0-1.4,0-2v-.6c-.6-.1-.9-.1-1.3,.5-.4,.8-1.5,1-2.3,.8-.9-.3-1.4-1.1-1.4-2s.6-1.7,1.5-2,1.8,.1,2.3,.8c.4,.6,.5,.6,1.2,.4v-2.9H10.9c-.9,0-1.1-.2-1.1-1v-9.4h-3.2c-1.1,.1-1.9-.3-2.3-1.4V5.9c.3-.7,.7-1.1,1.4-1.4H15.4c1.1,.4,1.5,1.2,1.4,2.3-.1,1.1,0,2.2,0,3.4,0,.6-.2,.9-.7,.9-.4,0-.7-.3-.7-.9v-3.7c0-.4-.1-.6-.6-.6H6.3c-.4,0-.6,.2-.6,.6V15c0,.4,.2,.6,.6,.6H14.8c.5,0,.6-.1,.6-.6v-1.5c0-.5,.3-.8,.7-.8s.7,.3,.7,.8v1.7c0,1.1-.8,1.8-1.8,1.8h-3.6v9h8.4v-3.8c0-1.4,.9-2.3,2.3-2.3h2.9v-2.2c0-.3-.1-.5-.4-.7-1.4-.8-1.3-2.8,.1-3.6,1-.5,2.2-.2,2.8,.8,.6,1,.3,2.2-.7,2.8-.2,.1-.4,.2-.4,.4v2.5h3.8V11c0-.8,.2-1,1-1h8v-3.2c-.1-1.1,.3-1.9,1.4-2.3h9.7c.6,.1,1.1,.6,1.3,1.2Zm-23.6,15.4h-5.8c-.9,0-1.1,.2-1.1,1.1v11.6c0,.9,.2,1.1,1.1,1.1h11.5c.9,0,1.1-.2,1.1-1.1v-11.6c0-.9-.2-1.1-1.1-1.1h-5.7Zm17.4-5.7h4.1c.6,0,.7-.1,.7-.7V6.4c0-.6-.1-.7-.7-.7h-8.4c-.5,0-.6,.1-.6,.7V14.8c0,.5,.1,.6,.7,.6h4.2ZM10.5,50.3h4.2c.5,0,.6-.1,.6-.6v-8.4c0-.5-.1-.6-.6-.6H6.3c-.5,0-.6,.1-.6,.6v8.4c0,.5,.1,.6,.6,.6h4.2ZM26.4,15.1c0-.4-.3-.7-.7-.7s-.6,.3-.6,.7,.3,.7,.7,.7c.3-.1,.6-.4,.6-.7Zm15.1,10.5c.4,0,.7-.3,.7-.7s-.3-.7-.7-.7-.7,.3-.7,.7,.3,.7,.7,.7Zm-24,5.3c0-.4-.3-.7-.7-.7s-.7,.3-.6,.7c0,.4,.3,.7,.7,.7,.3,0,.6-.3,.6-.7Zm14,10.4c0-.4-.3-.7-.7-.7s-.7,.3-.7,.7,.3,.7,.7,.7c.5,0,.7-.3,.7-.7Z"/>
  <path class="cls-1" d="M45.4,42h2.3c.7,0,1.1,.4,1.2,1.2v4.6c0,.7-.4,1.1-1.2,1.2h-4.6c-.7,0-1.1-.4-1.2-1.2v-4.6c0-.7,.4-1.1,1.2-1.2,.8-.1,1.5,0,2.3,0Zm-2,1.4v4.1h4.1v-4.1h-4.1Z"/>
  <path class="cls-1" d="M14,10.6v2.2c0,.8-.4,1.3-1.2,1.3h-4.5c-.8,0-1.2-.4-1.2-1.2v-4.5c0-.8,.4-1.2,1.2-1.2h4.5c.8,0,1.2,.4,1.2,1.2v2.2Zm-5.5-2.1v4.1h4.1v-4.1h-4.1Z"/>
  <path class="cls-1" d="M23.9,23.9v8.2h8.2v-8.2h-1c-.5,0-.8-.3-.8-.7s.3-.7,.8-.7h1.2c.9,0,1.2,.4,1.3,1.2v8.5c0,.9-.4,1.3-1.3,1.3h-8.4c-.9,0-1.3-.4-1.3-1.3v-8.4c0-.9,.4-1.3,1.3-1.3h4.1c.4,0,.7,.1,.8,.5,.1,.5-.2,.9-.8,.9h-4.1Z"/>
  <path class="cls-1" d="M48.9,10.6v2.3c0,.8-.4,1.2-1.2,1.2h-4.5c-.8,0-1.2-.4-1.2-1.2v-4.5c0-.8,.4-1.2,1.2-1.2h4.5c.8,0,1.2,.4,1.2,1.2v2.2Zm-5.6-2.1v4.1h4.1v-4.1h-4.1Z"/>
  <path class="cls-1" d="M10.6,42h2.3c.8,0,1.2,.4,1.2,1.2v4.6c0,.8-.4,1.2-1.2,1.2h-4.6c-.8,0-1.2-.4-1.2-1.2v-4.6c0-.8,.4-1.2,1.2-1.2h2.3Zm2,5.5v-4.1h-4.1v4.1h4.1Z"/>
</svg>