<?xml version="1.0" encoding="UTF-8"?>
<svg id="a" xmlns="http://www.w3.org/2000/svg" width="56" height="56" viewBox="0 0 56 56">
  <defs>
    <style>
      .cls-1 {
        fill: #0bbbef;
      }
    </style>
  </defs>
  <path class="cls-1" d="M50.8,54.2H5.3c-.6-.2-1.2-.4-1.7-.7-1-.6-1.5-1.6-1.8-2.7v-2.8c.5-1.6,1.6-2.1,3.2-2V16.7c0-2.2,1.4-3.5,3.5-3.5h3.9c.3,0,.5-.1,.7-.4,1-1.5,2.4-2.5,4.2-2.9,.6,0,.7-.2,.7-.6,.7-3.6,2.8-6,6.3-7.1,.6-.2,1.3-.3,1.9-.4h1.1c.1,0,.2,.1,.3,.1,3.7,.5,6.2,2.5,7.6,5.9,.1,.3,.3,.3,.5,.4,2.3,.2,4.1,1.8,4.5,4,0,.1,.1,.3,.1,.4,.6,.2,1,.7,1.7,.7h6c1.7,.3,2.8,1.6,2.8,3.4v29.4h1.2c1.1,.2,1.7,.9,2.1,1.9v2.8c0,.1-.1,.2-.1,.3-.3,1.3-1.1,2.2-2.3,2.8-.2,.1-.6,.2-.9,.3ZM23.1,30.5v-7.4h-3.9c-3.3,0-5.5-1.6-6.7-4.6,0-.1-.2-.3-.3-.3h-2.2v24.6H46V18.2h-2.1c0,.1-.1,.1-.1,.2-.5,2.8-2.7,4.7-5.5,4.7h-5.3v7.4h7.9c.8,0,1.1,.3,1.1,1v3.5c0,.3,.1,.5,.4,.7,.8,.4,1.2,1.1,1.3,2,.1,1.2-.8,2.3-2,2.6-1.1,.2-2.3-.4-2.8-1.5-.4-1.2,0-2.4,1.1-3,.1-.1,.3-.2,.3-.3v-3.3h-7.8c-1,0-1.2-.2-1.2-1.2v-7.8h-2.5v11.9c0,.3,.1,.5,.4,.7,1,.5,1.4,1.7,1.2,2.8-.3,1.1-1.3,1.8-2.4,1.8s-2.1-.8-2.4-1.8c-.3-1.1,.2-2.2,1.2-2.7,.3-.2,.4-.3,.4-.7v-12h-2.4v7.7c0,1.1-.2,1.3-1.3,1.3h-7.8v3c0,.3,.1,.4,.3,.6,1,.6,1.5,1.7,1.2,2.8s-1.2,1.8-2.4,1.8c-1.1,0-2.1-.7-2.4-1.8-.3-1.1,.2-2.2,1.2-2.8,.3-.2,.4-.3,.4-.6v-3.5c0-.8,.3-1.1,1.1-1.1h7.3c.3-.1,.4-.1,.7-.1Zm5.5-9.1h9.8c1.3,0,2.3-.5,3.1-1.5,1.5-2.2,.6-5.1-1.9-5.9-.5-.2-.8-.4-.8-.9-.1-2.2-1.6-3.5-3.8-3.3-.5,.1-.9-.2-1-.7,0-.2-.1-.3-.1-.5-.9-3.3-4.3-5.6-7.6-5.2-3.7,.4-6.5,3.3-6.6,6.9,0,.9-.2,1.1-1.1,1.2-2.9,.2-5,2.8-4.6,5.6,.4,2.5,2.4,4.3,4.9,4.3h9.7Zm-.6,31.2h22c1.6,0,2.6-1,2.6-2.6v-1.4c0-.6-.3-.9-.9-.9h-14.7c-.2,0-.4,.1-.5,.3-.4,.5-.7,1.1-1.1,1.6-.3,.4-.6,.6-1.1,.6h-12.5c-.6,0-1-.2-1.3-.7s-.6-.9-.9-1.4c-.2-.3-.4-.4-.7-.4H4.5c-.9,0-1.1,.3-1.1,1.1v1c0,1.8,1,2.8,2.8,2.8H28Zm-21.3-6.6H49.4V16.6c0-1-.7-1.7-1.7-1.7h-4.5c.2,.4,.4,.8,.4,1.2,.1,.4,.3,.5,.7,.5h2.3c.8,0,1.1,.3,1.1,1.1v25.7c0,.8-.3,1.1-1.1,1.1H9.4c-.8,0-1.1-.3-1.1-1.1V17.7c0-.8,.3-1.1,1.1-1.1h2.7c.1-.6,.1-1.1,.2-1.6h-3.6c-1.4,0-2,.6-2,2v29Zm27.9,1.7h-13.2c.2,.6,.6,.8,1.2,.8h10.9c.6,0,.9-.3,1.1-.8Zm-18.9-9.9c0-.4-.4-.8-.8-.8s-.8,.4-.8,.8,.4,.8,.8,.8c.4,.1,.8-.3,.8-.8Zm12.3-.8c-.4,0-.8,.3-.8,.8,0,.4,.3,.8,.8,.8,.4,0,.8-.3,.8-.8,0-.4-.3-.8-.8-.8Zm13.9,.8c0-.4-.4-.8-.8-.8s-.8,.4-.8,.8,.4,.8,.8,.8c.5,0,.9-.3,.8-.8Z"/>
</svg>