<?xml version="1.0" encoding="utf-8"?>
<!-- Generator: Adobe Illustrator 26.1.0, SVG Export Plug-In . SVG Version: 6.00 Build 0)  -->
<svg version="1.1" id="Layer_1" xmlns="http://www.w3.org/2000/svg" xmlns:xlink="http://www.w3.org/1999/xlink" x="0px" y="0px"
	 viewBox="0 0 512 474.2" style="enable-background:new 0 0 512 474.2;" xml:space="preserve">
<style type="text/css">
	.st0{fill:#E153C8;}
</style>
<path class="st0" d="M467,93.7H347.1V60.1c0-7.6-3.6-14.9-9.7-19.6c-3.5-2.5-11.1-7.5-22.9-12.3c-5.6-2.2-28.1-9.1-47.1-10.4
	c-0.4-0.1-0.7-0.1-1.1-0.1h-0.1l-6.6-0.3c-0.3-0.1-0.6-0.1-0.9-0.1s-0.6,0-0.9,0.1h-2c-20.7,0-40.9,3.8-58.5,10.9
	c-14.7,5.9-22.6,12.1-22.9,12.3c-6.1,4.6-9.7,11.9-9.7,19.5v33.7h-120c-21.4,0-38.8,17.5-38.8,39V235c0,10.9,4.6,21.3,12.5,28.6V418
	c0,21.5,17.5,39,39,39h397.1c21.5,0,39-17.5,39-39V263.5c8-7.3,12.5-17.7,12.5-28.6V132.8C506,111.3,488.5,93.7,467,93.7z
	 M329.8,60.1v33.7h-14.3V69.1c0-3.2-1.9-6.2-4.7-7.7c-9-4.6-28.1-12.2-54.6-12.2s-45.6,7.6-54.6,12.2c-2.9,1.5-4.7,4.5-4.7,7.7v24.7
	h-14.3V58.7h-0.1c0.3-1.7,1.3-3.3,2.6-4.3l0.2-0.1c2.3-1.6,8.6-5.9,18.8-9.9c15.8-6.3,33.8-9.6,52-9.6c1.5,0,3.1,0,4.5,0.1
	c29.7,2.5,41.7,7.2,46.8,9.2l0.7,0.3c10.2,4.1,16.6,8.3,18.8,10l0.1,0.1C328.7,55.8,329.8,57.9,329.8,60.1z M214,74.6
	c12.8-5.4,27-8.2,42-8.2c18.8,0,33.1,4.4,42,8.2v19.2h-84V74.6z M236.3,328v-34.8c0-0.8,0.6-1.4,1.4-1.4h36.5c0.8,0,1.4,0.6,1.4,1.4
	V328c0,10.9-8.8,19.7-19.7,19.7C245.1,347.7,236.3,338.9,236.3,328z M35.8,276.3c12.4,8,26.5,15.2,41.9,21.4h0.1h0.1
	c0.1,0,0.2,0.1,0.2,0.1c0.2,0.1,0.5,0.2,0.8,0.2c42.5,17.5,80.5,25.1,139.9,27.9v2.1c0,20.4,16.6,37,37,37s37-16.6,37-37v-2.1
	c95.3-5.2,152-29.5,183.1-49.6v141.6l0.1,1c-0.5,11.5-10,20.6-21.6,20.6h-397c-11.9,0-21.6-9.7-21.6-21.6
	C35.8,417.9,35.8,276.3,35.8,276.3z M293.1,308.5v-15.3c0-10.3-8.4-18.8-18.8-18.8h-36.5c-10.3,0-18.8,8.4-18.8,18.8v15.3
	c-60-2.7-103.2-12.3-148.8-33.2c-19-9-31.6-17.9-38.9-23.7c-5-4.1-7.9-10.2-7.9-16.8v-102c0-11.9,9.7-21.6,21.6-21.6h422.1
	c11.9,0,21.6,9.7,21.6,21.6v100.7h-0.2v1.4c0,6.5-2.9,12.6-7.9,16.8c-10.8,8.8-30.3,21.7-61.7,33.2
	C383.2,298,340.8,305.9,293.1,308.5z"/>
</svg>
