<?xml version="1.0" encoding="utf-8"?>
<!-- Generator: Adobe Illustrator 26.1.0, SVG Export Plug-In . SVG Version: 6.00 Build 0)  -->
<svg version="1.1" id="Capa_1" xmlns="http://www.w3.org/2000/svg" xmlns:xlink="http://www.w3.org/1999/xlink" x="0px" y="0px"
	 viewBox="0 0 63.6 63.6" style="enable-background:new 0 0 63.6 63.6;" xml:space="preserve">
<style type="text/css">
	.st0{fill:#E153C8;}
</style>
<g>
	<path class="st0" d="M22.4,29.9c1.3,0,2.5,0,3.8,0c0,1.2,0,2.5,0,3.8c-1.2,0-2.5,0-3.8,0C22.4,32.4,22.4,31.2,22.4,29.9z"/>
	<path class="st0" d="M29.9,29.9c1.3,0,2.5,0,3.8,0c0,1.2,0,2.5,0,3.8c-1.2,0-2.5,0-3.8,0C29.9,32.4,29.9,31.2,29.9,29.9z"/>
	<path class="st0" d="M37.5,33.7c0-1.3,0-2.5,0-3.8c1.2,0,2.5,0,3.8,0c0,1.2,0,2.5,0,3.8C40,33.7,38.7,33.7,37.5,33.7z"/>
	<path class="st0" d="M48.8,29.9c0,1.3,0,2.5,0,3.8c-1.2,0-2.5,0-3.8,0c0-1.2,0-2.5,0-3.8C46.3,29.9,47.5,29.9,48.8,29.9z"/>
	<path class="st0" d="M14.8,37.5c1.2,0,2.5,0,3.7,0c0,1.2,0,2.5,0,3.8c-1.2,0-2.5,0-3.7,0C14.8,40,14.8,38.7,14.8,37.5z"/>
	<path class="st0" d="M22.4,41.2c0-1.2,0-2.5,0-3.8c1.2,0,2.5,0,3.8,0c0,1.2,0,2.5,0,3.8C24.9,41.2,23.6,41.2,22.4,41.2z"/>
	<path class="st0" d="M33.7,37.5c0,1.2,0,2.5,0,3.8c-1.2,0-2.5,0-3.8,0c0-1.2,0-2.5,0-3.8C31.2,37.5,32.4,37.5,33.7,37.5z"/>
	<path class="st0" d="M37.5,37.4c1.2,0,2.5,0,3.7,0c0,1.2,0,2.5,0,3.8c-1.2,0-2.5,0-3.7,0C37.5,40,37.5,38.7,37.5,37.4z"/>
	<path class="st0" d="M45,37.5c1.3,0,2.5,0,3.8,0c0,1.2,0,2.5,0,3.8c-1.2,0-2.5,0-3.8,0C45,40,45,38.7,45,37.5z"/>
	<path class="st0" d="M14.8,45c1.3,0,2.5,0,3.7,0c0,1.2,0,2.5,0,3.8c-1.2,0-2.5,0-3.7,0C14.8,47.5,14.8,46.3,14.8,45z"/>
	<path class="st0" d="M26.1,45c0,1.2,0,2.5,0,3.8c-1.2,0-2.5,0-3.8,0c0-1.2,0-2.5,0-3.8C23.6,45,24.9,45,26.1,45z"/>
	<path class="st0" d="M29.9,45c1.3,0,2.5,0,3.8,0c0,1.2,0,2.5,0,3.8c-1.2,0-2.5,0-3.8,0C29.9,47.5,29.9,46.3,29.9,45z"/>
	<path class="st0" d="M13,55.8c-2.5,0-4.6-1.6-5.1-4.1c-0.1-0.3-0.1-0.7-0.1-1.1c0-11.3,0-22.6,0-33.9c0-2.5,1.8-4.6,4.2-5.1
		c0.3-0.1,0.7-0.1,1.1-0.1l0.2,0c0.2,0,0.4,0,0.6,0h1.4V7.8h2.8v3.8h27.4V7.8h2.8v3.8h1.1c0.2,0,0.4,0,0.7,0c0.5,0,0.9,0,1.4,0.1
		c1.6,0.2,2.8,1.1,3.7,2.5c0.5,0.8,0.7,1.7,0.7,2.7c0,0,0,31.1,0,33.8c0,1.7-0.7,3.1-2.1,4.2c-0.9,0.7-2,1.1-3.1,1.1H46L13,55.8z
		 M10.5,50.6c0,0.3,0,0.6,0.1,0.8c0.3,1,1.2,1.6,2.3,1.6c0,0,33.9,0,37.6,0c0.3,0,0.6,0,0.8-0.1c1-0.3,1.6-1.2,1.6-2.4V25.6H10.5
		C10.5,25.6,10.5,43.2,10.5,50.6z M12.7,14.3c-0.2,0-0.3,0-0.4,0.1c-1.1,0.3-1.8,1.2-1.8,2.3v6.1h42.5v-2.5c0-1.2,0-2.4,0-3.6
		c0-1.1-0.7-2-1.8-2.3c-0.1,0-0.2-0.1-0.4-0.1h-2.7v3.7h-2.8v-3.7H18.1v3.7h-2.8v-3.8h-1.5L12.7,14.3z"/>
</g>
</svg>
